<svg width="111" height="110" viewBox="0 0 111 110" fill="none" xmlns="http://www.w3.org/2000/svg">
<circle cx="56" cy="55" r="55" fill="white" fill-opacity="0.07"/>
<circle cx="56.0003" cy="54.9998" r="15.2308" fill="url(#paint0_linear_1578_10461)"/>
<path d="M49.8646 51.914L49.8606 51.9338V51.954V51.957V52.157H50.0606H64.9391V57.8493L50.0606 57.8463L49.8157 57.8462L49.8646 58.0863C50.1359 59.4156 50.7485 60.6515 51.6423 61.6723C52.5361 62.693 53.6802 63.4636 54.9621 63.908C56.244 64.3524 57.6196 64.4555 58.9534 64.2071C60.2378 63.9678 61.4408 63.4106 62.4532 62.5873L67.3147 65.8284C65.5846 67.6497 63.3796 68.9537 60.9467 69.5915C58.4383 70.2491 55.7936 70.1707 53.3285 69.3658C50.8634 68.5609 48.6821 67.0634 47.0452 65.0523C45.4082 63.0411 44.3847 60.6012 44.097 58.0241L44.0771 57.8463H43.8982H40.9698V52.154H43.9013H44.0802L44.1 51.9762C44.3883 49.3997 45.4119 46.9606 47.0486 44.95C48.6854 42.9394 50.8662 41.4423 53.3307 40.6375C55.7952 39.8327 58.4393 39.7541 60.9472 40.4111C63.3796 41.0484 65.5844 42.3515 67.3146 44.1718L62.4532 47.4099C61.4406 46.5866 60.2373 46.0294 58.9527 45.7904C57.6187 45.5421 56.243 45.6454 54.961 46.0902C53.6791 46.535 52.535 47.3059 51.6414 48.327C50.7478 49.3482 50.1354 50.5844 49.8646 51.914ZM25.3391 55.0001C25.3391 71.9345 39.0662 85.6617 56.0006 85.6617C72.935 85.6617 86.6621 71.9345 86.6621 55.0001C86.6621 38.0657 72.935 24.3386 56.0006 24.3386C39.0662 24.3386 25.3391 38.0657 25.3391 55.0001Z" fill="url(#paint1_linear_1578_10461)" stroke="url(#paint2_linear_1578_10461)" stroke-width="0.4"/>
<circle cx="56" cy="55" r="32.5" stroke="url(#paint3_linear_1578_10461)"/>
<defs>
<linearGradient id="paint0_linear_1578_10461" x1="56.0003" y1="39.769" x2="56.0003" y2="70.2306" gradientUnits="userSpaceOnUse">
<stop stop-color="#C7C7C7"/>
<stop offset="1" stop-color="white" stop-opacity="0.22"/>
</linearGradient>
<linearGradient id="paint1_linear_1578_10461" x1="56.0006" y1="24.5386" x2="56.0006" y2="85.4617" gradientUnits="userSpaceOnUse">
<stop stop-color="#5A5A5A"/>
<stop offset="1" stop-color="#212121"/>
</linearGradient>
<linearGradient id="paint2_linear_1578_10461" x1="56.0006" y1="24.5386" x2="56.0006" y2="85.4617" gradientUnits="userSpaceOnUse">
<stop stop-color="#5A5A5A"/>
<stop offset="1" stop-color="#212121"/>
</linearGradient>
<linearGradient id="paint3_linear_1578_10461" x1="56" y1="22" x2="56" y2="88" gradientUnits="userSpaceOnUse">
<stop stop-color="#C7C7C7"/>
<stop offset="1" stop-color="white" stop-opacity="0.22"/>
</linearGradient>
</defs>
</svg>
