<svg width="195" height="60" viewBox="0 0 195 60" fill="none" xmlns="http://www.w3.org/2000/svg">
<path d="M7.5 37.24C6.18 37.24 5.02667 36.94 4.04 36.34C3.05333 35.74 2.28667 34.9 1.74 33.82C1.19333 32.74 0.92 31.48 0.92 30.04C0.92 28.6133 1.2 27.3533 1.76 26.26C2.32 25.1667 3.11333 24.3133 4.14 23.7C5.18 23.0733 6.40667 22.76 7.82 22.76C9.42 22.76 10.7533 23.1467 11.82 23.92C12.8867 24.6933 13.58 25.76 13.9 27.12H11.5C11.2867 26.3733 10.8667 25.7867 10.24 25.36C9.61333 24.9333 8.80667 24.72 7.82 24.72C6.35333 24.72 5.2 25.1933 4.36 26.14C3.52 27.0867 3.1 28.3933 3.1 30.06C3.1 31.7267 3.51333 33.0267 4.34 33.96C5.16667 34.8933 6.26667 35.36 7.64 35.36C9.02667 35.36 10.0667 34.9667 10.76 34.18C11.4667 33.3933 11.88 32.3467 12 31.04H8.2V29.4H14.14V37H12.2L12.02 34.94C11.5533 35.6733 10.9667 36.24 10.26 36.64C9.55333 37.04 8.63333 37.24 7.5 37.24ZM21.273 37.24C20.2996 37.24 19.433 37.0267 18.673 36.6C17.9263 36.16 17.3396 35.5533 16.913 34.78C16.4863 34.0067 16.273 33.1067 16.273 32.08C16.273 31.04 16.4796 30.1267 16.893 29.34C17.3196 28.5533 17.9063 27.94 18.653 27.5C19.413 27.06 20.293 26.84 21.293 26.84C22.2663 26.84 23.113 27.06 23.833 27.5C24.553 27.9267 25.113 28.5 25.513 29.22C25.913 29.94 26.113 30.7333 26.113 31.6C26.113 31.7333 26.1063 31.88 26.093 32.04C26.093 32.1867 26.0863 32.3533 26.073 32.54H18.353C18.4196 33.5 18.733 34.2333 19.293 34.74C19.8663 35.2333 20.5263 35.48 21.273 35.48C21.873 35.48 22.373 35.3467 22.773 35.08C23.1863 34.8 23.493 34.4267 23.693 33.96H25.813C25.5463 34.8933 25.013 35.6733 24.213 36.3C23.4263 36.9267 22.4463 37.24 21.273 37.24ZM21.273 28.58C20.5663 28.58 19.9396 28.7933 19.393 29.22C18.8463 29.6333 18.513 30.26 18.393 31.1H23.993C23.953 30.3267 23.6796 29.7133 23.173 29.26C22.6663 28.8067 22.033 28.58 21.273 28.58ZM32.2188 37C31.2454 37 30.4721 36.7667 29.8988 36.3C29.3254 35.82 29.0388 34.9733 29.0388 33.76V28.86H27.3388V27.08H29.0388L29.2988 24.56H31.1588V27.08H33.9588V28.86H31.1588V33.76C31.1588 34.3067 31.2721 34.6867 31.4988 34.9C31.7388 35.1 32.1454 35.2 32.7188 35.2H33.8588V37H32.2188ZM45.1438 37.24C43.8904 37.24 42.8571 36.9333 42.0438 36.32C41.2304 35.7067 40.7638 34.8933 40.6438 33.88H42.7837C42.8904 34.3333 43.1438 34.7267 43.5438 35.06C43.9438 35.38 44.4704 35.54 45.1237 35.54C45.7638 35.54 46.2304 35.4067 46.5238 35.14C46.8171 34.8733 46.9638 34.5667 46.9638 34.22C46.9638 33.7133 46.7571 33.3733 46.3438 33.2C45.9438 33.0133 45.3838 32.8467 44.6638 32.7C44.1038 32.58 43.5438 32.42 42.9838 32.22C42.4371 32.02 41.9771 31.74 41.6038 31.38C41.2438 31.0067 41.0638 30.5067 41.0638 29.88C41.0638 29.0133 41.3971 28.2933 42.0638 27.72C42.7304 27.1333 43.6638 26.84 44.8638 26.84C45.9704 26.84 46.8638 27.1067 47.5438 27.64C48.2371 28.1733 48.6438 28.9267 48.7638 29.9H46.7238C46.6571 29.4733 46.4571 29.14 46.1238 28.9C45.8038 28.66 45.3704 28.54 44.8238 28.54C44.2904 28.54 43.8771 28.6533 43.5838 28.88C43.2904 29.0933 43.1438 29.3733 43.1438 29.72C43.1438 30.0667 43.3438 30.34 43.7438 30.54C44.1571 30.74 44.6971 30.92 45.3638 31.08C46.0304 31.2267 46.6438 31.4 47.2038 31.6C47.7771 31.7867 48.2371 32.0667 48.5838 32.44C48.9304 32.8133 49.1038 33.36 49.1038 34.08C49.1171 34.9867 48.7638 35.74 48.0438 36.34C47.3371 36.94 46.3704 37.24 45.1438 37.24ZM55.207 37C54.2337 37 53.4604 36.7667 52.887 36.3C52.3137 35.82 52.027 34.9733 52.027 33.76V28.86H50.327V27.08H52.027L52.287 24.56H54.147V27.08H56.947V28.86H54.147V33.76C54.147 34.3067 54.2604 34.6867 54.487 34.9C54.727 35.1 55.1337 35.2 55.707 35.2H56.847V37H55.207ZM62.493 37.24C61.653 37.24 60.9596 37.1 60.413 36.82C59.8663 36.54 59.4596 36.1733 59.193 35.72C58.9263 35.2533 58.793 34.7467 58.793 34.2C58.793 33.24 59.1663 32.48 59.913 31.92C60.6596 31.36 61.7263 31.08 63.113 31.08H65.713V30.9C65.713 30.1267 65.4996 29.5467 65.073 29.16C64.6596 28.7733 64.1196 28.58 63.453 28.58C62.8663 28.58 62.353 28.7267 61.913 29.02C61.4863 29.3 61.2263 29.72 61.133 30.28H59.013C59.0796 29.56 59.3196 28.9467 59.733 28.44C60.1596 27.92 60.693 27.5267 61.333 27.26C61.9863 26.98 62.6996 26.84 63.473 26.84C64.8596 26.84 65.933 27.2067 66.693 27.94C67.453 28.66 67.833 29.6467 67.833 30.9V37H65.993L65.813 35.3C65.533 35.8467 65.1263 36.3067 64.593 36.68C64.0596 37.0533 63.3596 37.24 62.493 37.24ZM62.913 35.52C63.4863 35.52 63.9663 35.3867 64.353 35.12C64.753 34.84 65.0596 34.4733 65.273 34.02C65.4996 33.5667 65.6396 33.0667 65.693 32.52H63.333C62.493 32.52 61.893 32.6667 61.533 32.96C61.1863 33.2533 61.013 33.62 61.013 34.06C61.013 34.5133 61.1796 34.8733 61.513 35.14C61.8596 35.3933 62.3263 35.52 62.913 35.52ZM70.3048 37V27.08H72.2048L72.3848 28.96C72.7315 28.3067 73.2115 27.7933 73.8248 27.42C74.4515 27.0333 75.2048 26.84 76.0848 26.84V29.06H75.5048C74.9182 29.06 74.3915 29.16 73.9248 29.36C73.4715 29.5467 73.1048 29.8733 72.8248 30.34C72.5582 30.7933 72.4248 31.4267 72.4248 32.24V37H70.3048ZM82.0625 37C81.0892 37 80.3158 36.7667 79.7425 36.3C79.1692 35.82 78.8825 34.9733 78.8825 33.76V28.86H77.1825V27.08H78.8825L79.1425 24.56H81.0025V27.08H83.8025V28.86H81.0025V33.76C81.0025 34.3067 81.1158 34.6867 81.3425 34.9C81.5825 35.1 81.9892 35.2 82.5625 35.2H83.7025V37H82.0625ZM90.3745 37.24C89.4012 37.24 88.5345 37.0267 87.7745 36.6C87.0279 36.16 86.4412 35.5533 86.0145 34.78C85.5879 34.0067 85.3745 33.1067 85.3745 32.08C85.3745 31.04 85.5812 30.1267 85.9945 29.34C86.4212 28.5533 87.0079 27.94 87.7545 27.5C88.5145 27.06 89.3945 26.84 90.3945 26.84C91.3679 26.84 92.2145 27.06 92.9345 27.5C93.6545 27.9267 94.2145 28.5 94.6145 29.22C95.0145 29.94 95.2145 30.7333 95.2145 31.6C95.2145 31.7333 95.2079 31.88 95.1945 32.04C95.1945 32.1867 95.1879 32.3533 95.1745 32.54H87.4545C87.5212 33.5 87.8345 34.2333 88.3945 34.74C88.9679 35.2333 89.6279 35.48 90.3745 35.48C90.9745 35.48 91.4745 35.3467 91.8745 35.08C92.2879 34.8 92.5945 34.4267 92.7945 33.96H94.9145C94.6479 34.8933 94.1145 35.6733 93.3145 36.3C92.5279 36.9267 91.5479 37.24 90.3745 37.24ZM90.3745 28.58C89.6679 28.58 89.0412 28.7933 88.4945 29.22C87.9479 29.6333 87.6145 30.26 87.4945 31.1H93.0945C93.0545 30.3267 92.7812 29.7133 92.2745 29.26C91.7679 28.8067 91.1345 28.58 90.3745 28.58ZM101.934 37.24C100.974 37.24 100.128 37.0133 99.3942 36.56C98.6609 36.1067 98.0876 35.4867 97.6742 34.7C97.2609 33.9133 97.0542 33.02 97.0542 32.02C97.0542 31.02 97.2609 30.1333 97.6742 29.36C98.0876 28.5733 98.6609 27.96 99.3942 27.52C100.141 27.0667 100.994 26.84 101.954 26.84C102.741 26.84 103.428 26.9933 104.014 27.3C104.614 27.6067 105.081 28.04 105.414 28.6V22.6H107.534V37H105.634L105.414 35.46C105.094 35.9267 104.654 36.34 104.094 36.7C103.534 37.06 102.814 37.24 101.934 37.24ZM102.314 35.4C103.221 35.4 103.961 35.0867 104.534 34.46C105.121 33.8333 105.414 33.0267 105.414 32.04C105.414 31.04 105.121 30.2333 104.534 29.62C103.961 28.9933 103.221 28.68 102.314 28.68C101.408 28.68 100.661 28.9933 100.074 29.62C99.4876 30.2333 99.1942 31.04 99.1942 32.04C99.1942 32.6933 99.3276 33.2733 99.5942 33.78C99.8609 34.2867 100.228 34.6867 100.694 34.98C101.174 35.26 101.714 35.4 102.314 35.4Z" fill="#F2F2F2"/>
<ellipse opacity="0.3" cx="164.5" cy="30" rx="30.5" ry="30" fill="#F2F2F2"/>
<path d="M119 29.75H169.714" stroke="#F2F2F2"/>
<path d="M160.84 21L169.715 29.75L160.84 38.5" stroke="#F2F2F2"/>
</svg>
