<svg width="1440" height="498" viewBox="0 0 1440 498" fill="none" xmlns="http://www.w3.org/2000/svg">
<mask id="mask0_126_8875" style="mask-type:alpha" maskUnits="userSpaceOnUse" x="0" y="0" width="1440" height="498">
<rect width="1440" height="498" fill="#C4C4C4"/>
</mask>
<g mask="url(#mask0_126_8875)">
<path d="M-514 443.336C-363.123 423.624 -191.585 445.636 -17.5444 438.408C161.505 430.852 159.001 414.864 400.655 404.022C553.411 397.123 993.522 445.526 1150.66 447.717C1339.73 450.235 1436.14 427.019 1620.82 436.328C1731 441.913 1840.56 447.498 1950.75 453.083" stroke="url(#paint0_linear_126_8875)" stroke-miterlimit="10"/>
<path d="M-514 432.057C-413.832 418.916 -303.647 424.281 -190.332 427.129C-133.988 428.552 -77.0192 429.319 -19.4229 426.91C159.001 419.573 159.628 403.584 398.152 393.728C445.731 391.757 518.978 395.152 602.242 400.518C778.787 412.016 999.156 431.838 1120.61 435.78C1130.63 436.108 1140.02 436.328 1148.78 436.437C1303.42 438.189 1397.32 423.186 1527.54 422.748C1556.34 422.639 1587.01 423.296 1620.2 424.939C1730.38 430.414 1840.56 436.108 1950.75 441.693" stroke="url(#paint1_linear_126_8875)" stroke-miterlimit="10"/>
<path d="M-514 420.777C-414.459 407.746 -304.9 413.002 -191.586 415.74C-135.868 417.163 -78.8961 417.93 -21.2998 415.63C155.871 408.512 160.253 392.414 395.647 383.653C443.226 381.901 516.474 385.406 599.112 390.881C776.283 402.708 995.4 421.325 1118.73 424.829C1128.75 425.158 1138.14 425.377 1146.9 425.377C1300.91 426.691 1396.07 412.016 1526.29 411.578C1555.09 411.469 1585.76 412.016 1618.94 413.659C1729.75 419.025 1839.94 424.72 1950.12 430.414" stroke="url(#paint2_linear_126_8875)" stroke-miterlimit="10"/>
<path d="M-514 409.498C-414.459 396.466 -305.526 401.613 -192.838 404.351C-137.119 405.774 -80.7746 406.431 -23.1782 404.241C152.741 397.233 160.88 381.244 393.143 373.36C441.349 371.717 513.969 375.55 595.982 381.135C774.405 393.29 991.643 410.702 1116.85 413.769C1126.87 413.988 1136.26 414.207 1145.02 414.316C1297.78 415.302 1394.19 400.956 1525.66 400.408C1554.46 400.299 1585.14 400.846 1618.32 402.489C1729.13 407.746 1839.31 413.55 1950.75 419.135" stroke="url(#paint3_linear_126_8875)" stroke-miterlimit="10"/>
<path d="M-514 398.109C-415.085 385.187 -306.152 390.114 -194.089 392.962C-138.997 394.276 -82.027 395.042 -25.0567 392.852C149.61 386.063 161.505 370.074 390.638 363.175C439.47 361.751 511.465 365.694 592.851 371.388C771.901 383.872 987.888 400.08 1114.98 402.708C1124.99 402.927 1134.38 403.146 1143.15 403.146C1295.28 403.694 1392.94 389.676 1524.41 389.129C1553.83 389.019 1584.51 389.567 1617.69 391.1C1729.13 396.247 1839.31 402.051 1950.75 407.745" stroke="url(#paint4_linear_126_8875)" stroke-miterlimit="10"/>
<path d="M-514 386.829C-415.711 374.017 -306.778 378.835 -195.341 381.573C-140.249 382.887 -83.9054 383.544 -26.9351 381.463C146.48 374.893 162.131 359.014 388.134 352.991C437.592 351.677 508.961 355.948 589.721 361.752C769.397 374.564 984.131 389.567 1113.1 391.757C1123.11 391.976 1132.5 392.086 1141.27 392.086C1292.77 392.305 1391.69 378.616 1523.16 377.959C1552.58 377.85 1583.26 378.397 1616.44 379.93C1728.5 384.968 1838.69 390.881 1950.12 396.576" stroke="url(#paint5_linear_126_8875)" stroke-miterlimit="10"/>
<path d="M-514 375.55C-416.337 362.737 -308.029 367.446 -196.593 370.184C-141.501 371.498 -85.7839 372.155 -28.8136 370.074C143.349 363.613 163.384 347.844 385.631 342.807C435.088 341.711 506.457 346.201 586.591 352.005C766.892 365.146 980.375 378.945 1111.22 380.697C1121.24 380.806 1130.63 380.916 1139.39 380.916C1290.27 380.806 1390.44 367.337 1521.91 366.68C1551.33 366.57 1582.63 367.118 1615.81 368.541C1727.88 373.469 1838.06 379.492 1950.75 385.187" stroke="url(#paint6_linear_126_8875)" stroke-miterlimit="10"/>
<path d="M-514 364.27C-416.337 351.567 -308.657 356.057 -197.846 358.795C-143.38 360.109 -87.0347 360.766 -30.6905 358.685C140.22 352.553 164.009 336.783 383.126 332.622C433.209 331.636 503.953 336.345 583.461 342.368C764.388 355.838 975.993 368.541 1109.97 369.855C1119.98 369.965 1129.37 370.074 1138.14 370.074C1288.39 369.527 1389.81 356.386 1521.91 355.729C1551.96 355.619 1582.63 356.057 1615.81 357.59C1728.5 362.518 1838.68 368.432 1951.37 374.126" stroke="url(#paint7_linear_126_8875)" stroke-miterlimit="10"/>
<path d="M-514 352.991C-416.963 340.288 -309.282 344.778 -199.098 347.406C-144.632 348.72 -88.9132 349.268 -32.5689 347.296C137.09 341.273 165.262 325.723 380.622 322.438C431.332 321.671 501.449 326.599 580.33 332.622C761.884 346.42 972.236 357.919 1108.09 358.795C1118.11 358.904 1127.5 358.904 1136.26 358.904C1285.26 358.028 1388.56 345.216 1520.65 344.449C1550.7 344.23 1581.38 344.778 1614.56 346.201C1727.25 351.02 1838.06 357.043 1950.75 362.737" stroke="url(#paint8_linear_126_8875)" stroke-miterlimit="10"/>
<path d="M-514 341.602C-417.589 329.008 -310.534 333.279 -200.35 335.907C-146.51 337.221 -90.7916 337.769 -34.4474 335.798C133.959 329.994 166.514 314.553 377.492 312.144C428.828 311.596 498.319 316.743 576.575 322.766C759.381 337.002 967.854 347.187 1105.58 347.625C1115.6 347.625 1124.99 347.734 1133.76 347.625C1282.13 346.42 1386.68 333.827 1518.78 333.06C1548.83 332.841 1580.13 333.389 1613.31 334.703C1726.62 339.412 1837.43 345.435 1950.12 351.239" stroke="url(#paint9_linear_126_8875)" stroke-miterlimit="10"/>
<path d="M-514 330.322C-418.215 317.838 -311.16 322 -201.602 324.518C-147.762 325.723 -92.6701 326.27 -36.3258 324.409C130.829 318.824 167.139 303.602 374.987 301.959C426.949 301.521 495.815 306.997 573.445 313.129C756.877 327.694 963.472 336.783 1103.71 336.674C1113.72 336.674 1123.11 336.674 1131.88 336.564C1279.63 335.031 1384.8 322.766 1517.52 321.89C1547.57 321.671 1578.88 322.219 1612.06 323.533C1725.37 328.132 1836.18 334.265 1950.12 340.069" stroke="url(#paint10_linear_126_8875)" stroke-miterlimit="10"/>
<path d="M-514 319.043C-418.841 306.559 -311.786 310.611 -202.853 313.129C-149.013 314.334 -93.9225 314.881 -38.2043 313.02C127.698 307.654 168.392 292.651 372.483 291.775C425.071 291.556 493.311 297.141 570.315 303.383C754.372 318.276 959.715 326.27 1101.83 325.613C1111.84 325.613 1121.24 325.613 1130 325.504C1277.12 323.642 1383.55 311.596 1516.9 310.72C1547.57 310.501 1578.88 310.939 1611.43 312.253C1725.37 316.743 1836.18 322.876 1950.12 328.68" stroke="url(#paint11_linear_126_8875)" stroke-miterlimit="10"/>
<path d="M-514 307.763C-418.841 295.389 -312.413 299.222 -204.107 301.74C-150.893 302.945 -95.7994 303.493 -40.0812 301.74C125.195 296.484 170.271 281.81 369.98 281.7C423.194 281.7 490.807 287.504 567.184 293.856C751.868 309.078 955.959 315.867 1099.95 314.772C1109.97 314.662 1119.36 314.662 1128.12 314.553C1273.99 312.363 1382.3 300.536 1515.65 299.66C1546.32 299.441 1577.62 299.879 1610.8 301.193C1725.37 305.573 1836.18 311.815 1950.12 317.619" stroke="url(#paint12_linear_126_8875)" stroke-miterlimit="10"/>
<path d="M-514 296.484C-419.467 284.109 -313.665 287.942 -205.359 290.351C-152.145 291.556 -97.6778 291.994 -41.9597 290.351C122.065 285.314 171.522 270.968 367.474 271.516C421.315 271.625 488.929 277.758 564.054 284.109C749.364 299.769 951.576 305.354 1098.07 303.712C1108.09 303.602 1117.48 303.493 1126.24 303.383C1271.49 300.755 1381.04 289.366 1514.39 288.38C1545.07 288.161 1576.37 288.599 1609.55 289.804C1724.12 294.075 1834.93 300.426 1950.12 306.23" stroke="url(#paint13_linear_126_8875)" stroke-miterlimit="10"/>
<path d="M-514 285.095C-420.093 272.83 -314.29 276.444 -206.61 278.853C-154.022 280.057 -98.9302 280.496 -43.8381 278.853C118.934 274.034 172.774 259.908 364.971 261.222C419.437 261.55 486.424 267.902 560.924 274.363C746.86 290.351 947.821 294.841 1096.19 292.651C1106.21 292.542 1115.6 292.432 1124.37 292.213C1268.98 289.256 1379.79 278.086 1513.14 277.101C1543.82 276.882 1575.75 277.32 1608.93 278.524C1724.12 282.686 1834.93 289.037 1950.12 294.951" stroke="url(#paint14_linear_126_8875)" stroke-miterlimit="10"/>
<path d="M-514 273.815C-420.719 261.66 -314.916 265.055 -207.862 267.464C-155.274 268.668 -100.809 268.997 -45.7165 267.464C115.804 262.755 174.026 249.066 362.466 251.037C417.558 251.585 483.92 258.046 557.794 264.617C744.982 280.933 943.438 284.328 1094.32 281.59C1104.33 281.371 1113.72 281.262 1122.49 281.152C1266.48 277.867 1378.54 267.026 1512.52 265.931C1543.82 265.712 1575.12 266.15 1608.3 267.245C1723.49 271.297 1834.93 277.758 1950.12 283.562" stroke="url(#paint15_linear_126_8875)" stroke-miterlimit="10"/>
<path d="M-514 262.536C-421.345 250.38 -316.168 253.775 -209.114 256.075C-156.526 257.17 -102.687 257.608 -47.595 256.075C112.673 251.585 175.278 238.225 359.962 240.853C415.68 241.62 481.415 248.3 555.289 254.87C743.103 271.625 940.307 273.706 1093.69 270.53C1103.71 270.311 1113.1 270.202 1121.86 269.983C1265.23 266.369 1377.92 255.746 1512.52 254.651C1543.82 254.432 1575.74 254.761 1608.3 255.965C1724.12 259.908 1835.55 266.369 1951.37 272.282" stroke="url(#paint16_linear_126_8875)" stroke-miterlimit="10"/>
<path d="M-514 251.257C-421.345 239.21 -316.795 242.386 -210.367 244.686C-158.405 245.781 -104.564 246.219 -49.4719 244.686C109.544 240.415 176.531 227.493 357.459 230.559C413.803 231.545 478.911 238.444 552.158 245.124C740.598 262.207 936.551 263.193 1091.81 259.47C1101.83 259.251 1111.22 259.032 1120.61 258.813C1262.72 254.87 1377.29 244.467 1511.89 243.372C1543.19 243.153 1575.12 243.481 1608.3 244.576C1724.12 248.409 1835.56 254.98 1952 260.893" stroke="url(#paint17_linear_126_8875)" stroke-miterlimit="10"/>
<path d="M-514 239.977C-421.971 227.931 -317.421 230.997 -211.619 233.297C-159.657 234.392 -105.816 234.721 -51.3504 233.297C106.413 229.136 177.782 216.651 354.954 220.375C411.924 221.579 476.407 228.698 549.028 235.378C738.094 252.79 932.17 252.79 1089.93 248.409C1099.95 248.19 1109.34 247.971 1118.73 247.643C1260.22 243.372 1376.04 233.297 1510.64 232.092C1541.94 231.764 1573.87 232.202 1607.05 233.297C1723.49 237.02 1834.93 243.591 1951.37 249.614" stroke="url(#paint18_linear_126_8875)" stroke-miterlimit="10"/>
<path d="M-514 228.588C-422.597 216.651 -318.047 219.608 -212.871 221.798C-161.535 222.894 -107.695 223.222 -53.2288 221.798C103.283 217.856 179.66 205.81 351.823 210.081C410.046 211.504 473.277 218.842 545.273 225.631C734.965 243.481 927.787 242.277 1087.43 237.349C1097.45 237.02 1106.84 236.801 1116.23 236.582C1257.09 231.983 1374.16 222.127 1509.39 220.922C1541.31 220.594 1573.24 221.032 1606.42 222.017C1723.49 225.741 1834.93 232.311 1952 238.225" stroke="url(#paint19_linear_126_8875)" stroke-miterlimit="10"/>
<path d="M-514 217.309C-423.223 205.481 -319.298 208.219 -214.123 210.409C-162.787 211.504 -109.573 211.723 -55.1072 210.409C100.152 206.686 180.913 195.078 349.32 199.896C408.168 201.539 470.773 209.095 542.142 215.885C732.461 234.063 924.03 231.764 1085.55 226.288C1095.57 225.96 1104.96 225.741 1114.35 225.412C1254.58 220.594 1372.91 210.847 1508.13 209.643C1540.06 209.314 1571.99 209.643 1605.17 210.738C1722.24 214.352 1833.68 221.032 1951.37 226.945" stroke="url(#paint20_linear_126_8875)" stroke-miterlimit="10"/>
<path d="M-514 206.029C-423.849 194.202 -319.924 196.83 -215.374 199.02C-164.665 200.116 -110.826 200.335 -56.9857 199.02C97.0219 195.407 182.164 184.346 346.815 189.712C406.289 191.683 468.269 199.349 539.012 206.139C729.957 224.755 919.649 221.251 1083.67 215.228C1093.69 214.899 1103.08 214.571 1112.47 214.242C1251.45 209.095 1371.65 199.678 1506.88 198.363C1538.81 198.035 1571.36 198.363 1603.92 199.349C1721.61 202.853 1833.05 209.533 1950.75 215.556" stroke="url(#paint21_linear_126_8875)" stroke-miterlimit="10"/>
<path d="M-514 194.749C-423.849 183.032 -320.551 185.551 -216.628 187.631C-165.918 188.617 -112.703 188.836 -58.8626 187.741C93.8928 184.346 183.417 173.724 344.311 179.637C404.412 181.827 465.765 189.603 535.882 196.611C727.452 215.556 915.892 211.066 1081.79 204.386C1091.81 203.948 1101.2 203.729 1110.59 203.291C1248.95 197.816 1369.78 188.617 1506.25 187.303C1538.81 186.974 1570.74 187.303 1603.92 188.179C1721.61 191.574 1833.68 198.363 1952 204.386" stroke="url(#paint22_linear_126_8875)" stroke-miterlimit="10"/>
<path d="M-514 183.361C-424.475 171.643 -321.803 174.052 -217.879 176.133C-167.17 177.118 -114.581 177.338 -60.7411 176.242C90.7623 173.067 184.67 162.992 341.807 169.343C402.534 171.753 463.261 179.747 532.752 186.755C724.948 206.139 912.136 200.444 1079.92 193.216C1089.31 192.778 1099.32 192.45 1108.72 192.012C1246.45 186.208 1368.52 177.338 1505 175.914C1537.56 175.585 1570.11 175.914 1602.67 176.79C1720.99 180.075 1833.05 186.865 1951.37 192.888" stroke="url(#paint23_linear_126_8875)" stroke-miterlimit="10"/>
<path d="M-514 172.081C-425.101 160.473 -322.429 162.773 -219.131 164.744C-169.047 165.73 -116.46 165.949 -62.6195 164.854C87.6318 161.787 185.921 152.369 339.302 159.159C400.655 161.897 460.756 170 529.622 177.119C722.444 196.94 908.379 190.15 1078.04 182.266C1087.43 181.828 1097.45 181.499 1106.84 181.061C1243.94 174.928 1367.27 166.277 1503.75 164.854C1536.3 164.525 1568.86 164.744 1602.04 165.62C1720.99 168.796 1832.42 175.695 1951.37 181.718" stroke="url(#paint24_linear_126_8875)" stroke-miterlimit="10"/>
<path d="M-514 160.801C-425.727 149.303 -323.055 151.384 -220.383 153.355C-170.299 154.341 -117.712 154.45 -64.498 153.464C85.1273 150.617 187.174 141.637 336.799 148.975C398.777 151.931 458.252 160.254 526.491 167.372C719.94 187.522 903.997 179.637 1076.79 171.315C1086.18 170.876 1096.19 170.438 1105.58 170C1242.06 163.539 1366.65 155.107 1503.12 153.683C1535.68 153.355 1568.23 153.574 1601.41 154.45C1720.36 157.516 1832.43 164.415 1952 170.548" stroke="url(#paint25_linear_126_8875)" stroke-miterlimit="10"/>
<path d="M-514 149.522C-426.353 138.024 -323.68 139.995 -221.635 141.966C-172.177 142.952 -119.59 143.061 -66.3764 142.075C81.9967 139.447 187.799 131.015 334.294 138.79C396.272 142.075 455.748 150.508 523.361 157.735C717.436 178.323 900.24 169.343 1074.91 160.364C1084.3 159.816 1094.32 159.378 1103.71 158.94C1239.56 152.26 1365.39 144.047 1502.5 142.513C1535.68 142.185 1568.23 142.404 1600.79 143.171C1720.36 146.127 1832.43 153.136 1952 159.269" stroke="url(#paint26_linear_126_8875)" stroke-miterlimit="10"/>
<path d="M-514 138.243C-426.353 126.854 -324.934 128.715 -222.888 130.577C-173.43 131.563 -121.467 131.563 -68.2533 130.687C78.8677 128.168 189.051 120.393 331.79 128.606C394.395 132.22 453.244 140.762 520.231 147.989C714.931 168.905 896.484 158.94 1073.03 149.303C1082.42 148.756 1092.44 148.318 1101.83 147.77C1236.43 140.762 1364.14 132.767 1501.25 131.234C1534.43 130.906 1566.98 131.125 1600.16 131.891C1719.74 134.739 1831.8 141.857 1952 147.88" stroke="url(#paint27_linear_126_8875)" stroke-miterlimit="10"/>
<path d="M-514 126.854C-426.979 115.465 -325.56 117.217 -224.14 119.078C-174.682 119.955 -123.346 120.064 -70.1318 119.188C75.7372 116.888 190.304 109.77 329.287 118.312C392.517 122.254 450.114 130.905 517.101 138.133C712.427 159.487 892.729 148.318 1071.15 138.133C1080.54 137.586 1090.56 137.038 1099.95 136.6C1233.92 129.263 1362.26 121.597 1499.99 119.955C1533.17 119.517 1566.35 119.736 1598.91 120.502C1719.11 123.24 1831.17 130.358 1952 136.49" stroke="url(#paint28_linear_126_8875)" stroke-miterlimit="10"/>
<path d="M-514 115.574C-427.606 104.295 -326.185 105.828 -225.392 107.689C-176.56 108.566 -124.598 108.566 -72.0102 107.799C72.6066 105.609 190.93 99.1477 326.156 108.128C390.013 112.289 446.983 121.159 513.344 128.496C708.67 150.289 888.346 138.024 1068.65 127.182C1078.04 126.635 1088.06 126.087 1097.45 125.54C1230.79 117.874 1360.39 110.427 1498.12 108.785C1531.3 108.347 1564.48 108.566 1597.03 109.332C1717.86 111.851 1829.92 119.188 1950.75 125.321" stroke="url(#paint29_linear_126_8875)" stroke-miterlimit="10"/>
<path d="M-514 104.295C-428.232 93.1246 -327.437 94.5483 -226.644 96.3005C-177.812 97.1766 -126.477 97.1766 -73.8887 96.41C69.4761 94.4388 191.555 88.5253 323.651 97.9431C387.508 102.433 444.479 111.413 510.213 118.75C706.166 140.98 884.589 127.62 1066.77 116.122C1076.16 115.465 1086.18 114.917 1095.57 114.37C1228.29 106.485 1359.13 99.1477 1497.49 97.5051C1531.3 97.067 1563.85 97.2861 1597.03 97.9431C1717.86 100.352 1830.55 107.689 1951.37 113.932" stroke="url(#paint30_linear_126_8875)" stroke-miterlimit="10"/>
<path d="M-514 93.0153C-428.232 81.8453 -328.063 83.1594 -227.895 84.9115C-179.69 85.7876 -128.355 85.7875 -75.7671 85.1305C66.3456 83.3783 192.182 78.0124 321.148 87.7587C385.63 92.6867 441.974 101.666 507.083 109.113C703.662 131.672 880.834 117.326 1064.89 105.171C1074.28 104.514 1084.3 103.966 1093.69 103.309C1225.78 95.0958 1357.88 88.0872 1496.24 86.3351C1530.04 85.897 1563.22 86.1161 1595.78 86.7731C1717.23 89.1823 1829.3 96.5195 1950.75 102.652" stroke="url(#paint31_linear_126_8875)" stroke-miterlimit="10"/>
<path d="M-514 81.7356C-428.858 70.6751 -328.69 71.7702 -229.149 73.5224C-180.943 74.3985 -129.606 74.2889 -77.644 73.7413C63.2165 72.0987 192.807 67.4993 318.642 77.5742C383.751 82.8306 439.47 91.92 503.953 99.3666C701.158 122.364 877.077 106.923 1063.01 94.1102C1072.4 93.4532 1082.42 92.796 1091.81 92.2485C1223.28 83.7067 1356.63 76.9172 1494.99 75.165C1528.79 74.727 1561.97 74.8365 1595.15 75.4936C1716.61 77.7933 1829.29 85.1304 1951.37 91.3725" stroke="url(#paint32_linear_126_8875)" stroke-miterlimit="10"/>
<path d="M-514 70.3465C-429.484 59.2861 -329.316 60.3812 -230.4 62.0238C-182.195 62.8999 -131.484 62.7903 -79.5225 62.2428C60.086 60.7097 193.434 56.7674 316.139 67.2803C381.248 72.8653 436.966 82.064 500.823 89.6202C698.654 113.055 873.947 96.5193 1061.13 83.0496C1070.53 82.3925 1079.92 81.7356 1089.93 81.0785C1220.78 72.3178 1355.38 65.7471 1493.73 63.8854C1528.17 63.4474 1561.35 63.557 1593.9 64.1045C1715.98 66.2947 1828.67 73.7414 1950.75 79.9834" stroke="url(#paint33_linear_126_8875)" stroke-miterlimit="10"/>
<path d="M-514 59.0673C-430.11 48.1164 -330.568 48.9924 -231.652 50.635C-184.073 51.4016 -133.363 51.2922 -81.4009 50.8541C56.9555 49.54 194.06 46.2547 313.635 57.0961C378.744 63.0096 434.462 72.318 497.693 79.8742C695.523 103.747 870.19 86.1161 1059.26 71.9894C1068.65 71.3323 1078.04 70.5657 1088.06 69.9087C1218.27 60.8194 1353.5 54.4679 1493.11 52.6063C1527.54 52.1682 1560.72 52.2777 1593.27 52.8252C1715.98 54.9059 1828.04 62.4621 1950.75 68.7041" stroke="url(#paint34_linear_126_8875)" stroke-miterlimit="10"/>
<path d="M-514 47.7877C-430.736 36.9463 -331.193 37.7128 -232.904 39.2459C-185.324 40.0125 -135.241 39.9031 -83.2794 39.465C53.8249 38.3699 194.059 35.6321 311.13 46.9116C376.865 53.2632 431.958 62.5715 494.562 70.1277C693.019 94.4388 866.434 75.7127 1058 60.9289C1067.4 60.1623 1076.79 59.5053 1086.8 58.7387C1216.4 49.4304 1352.87 43.1883 1492.48 41.3266C1526.91 40.8886 1560.09 40.9981 1593.27 41.4361C1715.98 43.4073 1828.67 50.9635 1952 57.2055" stroke="url(#paint35_linear_126_8875)" stroke-miterlimit="10"/>
<path d="M-514 36.5082C-430.736 25.6667 -331.819 26.3239 -234.156 27.857C-61.9928 30.7043 151.488 20.6294 308 36.7273C373.735 43.4073 428.827 52.8251 490.805 60.4908C689.888 85.2399 862.053 65.4187 1055.5 49.9779C1192.61 39.0269 1340.35 32.3469 1490.6 30.2662C1655.88 27.9665 1794.86 38.1509 1950.75 46.1451" stroke="url(#paint36_linear_126_8875)" stroke-miterlimit="10"/>
<g filter="url(#filter0_f_126_8875)">
<path d="M852.453 210.991L944.595 28L1304.07 169.571L1213.14 381L852.453 210.991Z" fill="black"/>
<path d="M852.453 210.991L944.595 28L1304.07 169.571L1213.14 381L852.453 210.991Z" stroke="black"/>
</g>
</g>
<defs>
<filter id="filter0_f_126_8875" x="751.775" y="-72.6324" width="652.957" height="554.305" filterUnits="userSpaceOnUse" color-interpolation-filters="sRGB">
<feFlood flood-opacity="0" result="BackgroundImageFix"/>
<feBlend mode="normal" in="SourceGraphic" in2="BackgroundImageFix" result="shape"/>
<feGaussianBlur stdDeviation="50" result="effect1_foregroundBlur_126_8875"/>
</filter>
<linearGradient id="paint0_linear_126_8875" x1="718.038" y1="453.577" x2="718.038" y2="402.773" gradientUnits="userSpaceOnUse">
<stop stop-color="white"/>
<stop offset="1"/>
</linearGradient>
<linearGradient id="paint1_linear_126_8875" x1="718.038" y1="442.274" x2="718.038" y2="392.682" gradientUnits="userSpaceOnUse">
<stop stop-color="white"/>
<stop offset="1"/>
</linearGradient>
<linearGradient id="paint2_linear_126_8875" x1="718.038" y1="430.972" x2="718.038" y2="382.576" gradientUnits="userSpaceOnUse">
<stop stop-color="white"/>
<stop offset="1"/>
</linearGradient>
<linearGradient id="paint3_linear_126_8875" x1="718.038" y1="419.669" x2="718.038" y2="372.462" gradientUnits="userSpaceOnUse">
<stop stop-color="white"/>
<stop offset="1"/>
</linearGradient>
<linearGradient id="paint4_linear_126_8875" x1="718.038" y1="408.367" x2="718.038" y2="362.34" gradientUnits="userSpaceOnUse">
<stop stop-color="white"/>
<stop offset="1"/>
</linearGradient>
<linearGradient id="paint5_linear_126_8875" x1="718.038" y1="397.065" x2="718.038" y2="352.207" gradientUnits="userSpaceOnUse">
<stop stop-color="white"/>
<stop offset="1"/>
</linearGradient>
<linearGradient id="paint6_linear_126_8875" x1="718.038" y1="385.762" x2="718.038" y2="342.066" gradientUnits="userSpaceOnUse">
<stop stop-color="white"/>
<stop offset="1"/>
</linearGradient>
<linearGradient id="paint7_linear_126_8875" x1="718.038" y1="374.46" x2="718.038" y2="331.916" gradientUnits="userSpaceOnUse">
<stop stop-color="white"/>
<stop offset="1"/>
</linearGradient>
<linearGradient id="paint8_linear_126_8875" x1="718.038" y1="363.157" x2="718.038" y2="321.757" gradientUnits="userSpaceOnUse">
<stop stop-color="white"/>
<stop offset="1"/>
</linearGradient>
<linearGradient id="paint9_linear_126_8875" x1="718.038" y1="351.855" x2="718.038" y2="311.589" gradientUnits="userSpaceOnUse">
<stop stop-color="white"/>
<stop offset="1"/>
</linearGradient>
<linearGradient id="paint10_linear_126_8875" x1="718.038" y1="340.552" x2="718.038" y2="301.412" gradientUnits="userSpaceOnUse">
<stop stop-color="white"/>
<stop offset="1"/>
</linearGradient>
<linearGradient id="paint11_linear_126_8875" x1="718.038" y1="329.25" x2="718.038" y2="291.227" gradientUnits="userSpaceOnUse">
<stop stop-color="white"/>
<stop offset="1"/>
</linearGradient>
<linearGradient id="paint12_linear_126_8875" x1="718.038" y1="317.947" x2="718.038" y2="281.033" gradientUnits="userSpaceOnUse">
<stop stop-color="white"/>
<stop offset="1"/>
</linearGradient>
<linearGradient id="paint13_linear_126_8875" x1="718.038" y1="306.645" x2="718.038" y2="270.815" gradientUnits="userSpaceOnUse">
<stop stop-color="white"/>
<stop offset="1"/>
</linearGradient>
<linearGradient id="paint14_linear_126_8875" x1="718.038" y1="295.342" x2="718.038" y2="260.552" gradientUnits="userSpaceOnUse">
<stop stop-color="white"/>
<stop offset="1"/>
</linearGradient>
<linearGradient id="paint15_linear_126_8875" x1="718.038" y1="284.04" x2="718.038" y2="250.247" gradientUnits="userSpaceOnUse">
<stop stop-color="white"/>
<stop offset="1"/>
</linearGradient>
<linearGradient id="paint16_linear_126_8875" x1="718.037" y1="272.737" x2="718.037" y2="239.907" gradientUnits="userSpaceOnUse">
<stop stop-color="white"/>
<stop offset="1"/>
</linearGradient>
<linearGradient id="paint17_linear_126_8875" x1="718.038" y1="261.808" x2="718.038" y2="229.535" gradientUnits="userSpaceOnUse">
<stop stop-color="white"/>
<stop offset="1"/>
</linearGradient>
<linearGradient id="paint18_linear_126_8875" x1="718.037" y1="251.408" x2="718.037" y2="219.135" gradientUnits="userSpaceOnUse">
<stop stop-color="white"/>
<stop offset="1"/>
</linearGradient>
<linearGradient id="paint19_linear_126_8875" x1="718.038" y1="241.099" x2="718.038" y2="208.708" gradientUnits="userSpaceOnUse">
<stop stop-color="white"/>
<stop offset="1"/>
</linearGradient>
<linearGradient id="paint20_linear_126_8875" x1="718.038" y1="230.872" x2="718.038" y2="198.256" gradientUnits="userSpaceOnUse">
<stop stop-color="white"/>
<stop offset="1"/>
</linearGradient>
<linearGradient id="paint21_linear_126_8875" x1="718.038" y1="220.716" x2="718.038" y2="187.779" gradientUnits="userSpaceOnUse">
<stop stop-color="white"/>
<stop offset="1"/>
</linearGradient>
<linearGradient id="paint22_linear_126_8875" x1="718.038" y1="210.622" x2="718.038" y2="177.279" gradientUnits="userSpaceOnUse">
<stop stop-color="white"/>
<stop offset="1"/>
</linearGradient>
<linearGradient id="paint23_linear_126_8875" x1="718.037" y1="200.582" x2="718.037" y2="166.754" gradientUnits="userSpaceOnUse">
<stop stop-color="white"/>
<stop offset="1"/>
</linearGradient>
<linearGradient id="paint24_linear_126_8875" x1="718.037" y1="190.589" x2="718.037" y2="156.204" gradientUnits="userSpaceOnUse">
<stop stop-color="white"/>
<stop offset="1"/>
</linearGradient>
<linearGradient id="paint25_linear_126_8875" x1="718.038" y1="180.636" x2="718.038" y2="145.628" gradientUnits="userSpaceOnUse">
<stop stop-color="white"/>
<stop offset="1"/>
</linearGradient>
<linearGradient id="paint26_linear_126_8875" x1="718.038" y1="170.719" x2="718.038" y2="135.024" gradientUnits="userSpaceOnUse">
<stop stop-color="white"/>
<stop offset="1"/>
</linearGradient>
<linearGradient id="paint27_linear_126_8875" x1="718.038" y1="160.832" x2="718.038" y2="124.39" gradientUnits="userSpaceOnUse">
<stop stop-color="white"/>
<stop offset="1"/>
</linearGradient>
<linearGradient id="paint28_linear_126_8875" x1="718.038" y1="150.972" x2="718.038" y2="113.722" gradientUnits="userSpaceOnUse">
<stop stop-color="white"/>
<stop offset="1"/>
</linearGradient>
<linearGradient id="paint29_linear_126_8875" x1="718.038" y1="141.136" x2="718.038" y2="103.02" gradientUnits="userSpaceOnUse">
<stop stop-color="white"/>
<stop offset="1"/>
</linearGradient>
<linearGradient id="paint30_linear_126_8875" x1="718.037" y1="131.32" x2="718.037" y2="92.2778" gradientUnits="userSpaceOnUse">
<stop stop-color="white"/>
<stop offset="1"/>
</linearGradient>
<linearGradient id="paint31_linear_126_8875" x1="718.038" y1="121.523" x2="718.038" y2="81.4929" gradientUnits="userSpaceOnUse">
<stop stop-color="white"/>
<stop offset="1"/>
</linearGradient>
<linearGradient id="paint32_linear_126_8875" x1="718.037" y1="111.742" x2="718.037" y2="70.6445" gradientUnits="userSpaceOnUse">
<stop stop-color="white"/>
<stop offset="1"/>
</linearGradient>
<linearGradient id="paint33_linear_126_8875" x1="718.038" y1="101.975" x2="718.038" y2="59.7645" gradientUnits="userSpaceOnUse">
<stop stop-color="white"/>
<stop offset="1"/>
</linearGradient>
<linearGradient id="paint34_linear_126_8875" x1="718.038" y1="92.2226" x2="718.038" y2="48.8307" gradientUnits="userSpaceOnUse">
<stop stop-color="white"/>
<stop offset="1"/>
</linearGradient>
<linearGradient id="paint35_linear_126_8875" x1="718.038" y1="82.5044" x2="718.038" y2="37.7897" gradientUnits="userSpaceOnUse">
<stop stop-color="white"/>
<stop offset="1"/>
</linearGradient>
<linearGradient id="paint36_linear_126_8875" x1="718.038" y1="72.7508" x2="718.038" y2="26.4348" gradientUnits="userSpaceOnUse">
<stop stop-color="white"/>
<stop offset="1"/>
</linearGradient>
</defs>
</svg>
