<svg width="18" height="13" viewBox="0 0 18 13" fill="none" xmlns="http://www.w3.org/2000/svg">
<path fill-rule="evenodd" clip-rule="evenodd" d="M0 0H17.3333V13H0V0Z" fill="#E31D1C"/>
<path fill-rule="evenodd" clip-rule="evenodd" d="M3.85253 5.2839L1.74366 6.93676L2.54894 4.43718L1.14258 3.13743L3.04686 3.06716L3.85253 1.05518L4.6582 3.06716H6.55924L5.15613 4.43718L5.79531 6.93676L3.85253 5.2839Z" fill="#FECA00"/>
<path fill-rule="evenodd" clip-rule="evenodd" d="M8.13291 3.34268L7.24797 3.87691L7.44982 2.83441L6.71289 2.0542L7.71074 2.01201L8.13291 1.03857L8.55508 2.01201H9.55122L8.81599 2.83441L9.03734 3.87691L8.13291 3.34268Z" fill="#FECA00"/>
<path fill-rule="evenodd" clip-rule="evenodd" d="M9.21689 5.50918L8.33196 6.04341L8.53381 5.00091L7.79688 4.2207L8.79472 4.17852L9.21689 3.20508L9.63906 4.17852H10.6352L9.89997 5.00091L10.1213 6.04341L9.21689 5.50918Z" fill="#FECA00"/>
<path fill-rule="evenodd" clip-rule="evenodd" d="M8.13291 7.67617L7.24797 8.2104L7.44982 7.1679L6.71289 6.38769L7.71074 6.34551L8.13291 5.37207L8.55508 6.34551H9.55122L8.81599 7.1679L9.03734 8.2104L8.13291 7.67617Z" fill="#FECA00"/>
<path fill-rule="evenodd" clip-rule="evenodd" d="M5.96689 8.75918L5.08196 9.29341L5.28381 8.25091L4.54688 7.4707L5.54472 7.42852L5.96689 6.45508L6.38906 7.42852H7.38521L6.64997 8.25091L6.87132 9.29341L5.96689 8.75918Z" fill="#FECA00"/>
</svg>
