<svg width="20" height="20" viewBox="0 0 20 20" fill="none" xmlns="http://www.w3.org/2000/svg">
<mask id="mask0_889_4283" style="mask-type:alpha" maskUnits="userSpaceOnUse" x="1" y="4" width="18" height="13">
<rect x="1.66602" y="4.1665" width="16.6667" height="12.5" fill="white"/>
</mask>
<g mask="url(#mask0_889_4283)">
<path fill-rule="evenodd" clip-rule="evenodd" d="M1.66602 4.1665H18.3327V16.6665H1.66602V4.1665Z" fill="#E31D1C"/>
<path fill-rule="evenodd" clip-rule="evenodd" d="M1.66602 5.2085V6.25016H18.3327V5.2085H1.66602ZM1.66602 7.29183V8.3335H18.3327V7.29183H1.66602ZM1.66602 10.4168V9.37516H18.3327V10.4168H1.66602ZM1.66602 11.4585V12.5002H18.3327V11.4585H1.66602ZM1.66602 14.5835V13.5418H18.3327V14.5835H1.66602ZM1.66602 16.6668V15.6252H18.3327V16.6668H1.66602Z" fill="#F7FCFF"/>
<rect x="1.66602" y="4.1665" width="9.375" height="7.29167" fill="#2E42A5"/>
<path fill-rule="evenodd" clip-rule="evenodd" d="M2.74923 6.43123L3.30123 6.04672L3.72942 6.35498H3.48698L3.97726 6.78863L3.81166 7.39665H3.5523L3.30046 6.83822L3.08568 7.39665H2.44531L2.93559 7.83029L2.74923 8.51456L3.30123 8.13005L3.72942 8.43832H3.48698L3.97726 8.87196L3.81166 9.47998H3.5523L3.30046 8.92155L3.08568 9.47998H2.44531L2.93559 9.91363L2.74923 10.5979L3.30123 10.2134L3.83533 10.5979L3.66927 9.91363L4.0982 9.47998H3.90036L4.3429 9.17172L4.77109 9.47998H4.52865L5.01893 9.91363L4.83256 10.5979L5.38456 10.2134L5.91866 10.5979L5.75261 9.91363L6.18153 9.47998H5.98369L6.42623 9.17172L6.85442 9.47998H6.61198L7.10226 9.91363L6.9159 10.5979L7.4679 10.2134L8.002 10.5979L7.83594 9.91363L8.26487 9.47998H8.06702L8.50956 9.17172L8.93775 9.47998H8.69531L9.18559 9.91363L8.99923 10.5979L9.55123 10.2134L10.0853 10.5979L9.91927 9.91363L10.3482 9.47998H9.8023L9.55046 8.92155L9.33568 9.47998H9.02516L8.87761 8.87196L9.30653 8.43832H9.10869L9.55123 8.13005L10.0853 8.51456L9.91927 7.83029L10.3482 7.39665H9.8023L9.55046 6.83822L9.33568 7.39665H9.02516L8.87761 6.78863L9.30653 6.35498H9.10869L9.55123 6.04672L10.0853 6.43123L9.91927 5.74696L10.3482 5.31332H9.8023L9.55046 4.75488L9.33568 5.31332H8.69531L9.18559 5.74696L9.02 6.35498H8.76063L8.50879 5.79655L8.29402 6.35498H7.98349L7.83594 5.74696L8.26487 5.31332H7.71897L7.46713 4.75488L7.25235 5.31332H6.61198L7.10226 5.74696L6.93666 6.35498H6.6773L6.42546 5.79655L6.21068 6.35498H5.90016L5.75261 5.74696L6.18153 5.31332H5.63563L5.38379 4.75488L5.16902 5.31332H4.52865L5.01893 5.74696L4.85333 6.35498H4.59397L4.34213 5.79655L4.12735 6.35498H3.81683L3.66927 5.74696L4.0982 5.31332H3.5523L3.30046 4.75488L3.08568 5.31332H2.44531L2.93559 5.74696L2.74923 6.43123ZM9.02 8.43832L9.18559 7.83029L8.69531 7.39665H8.93775L8.50956 7.08839L8.06703 7.39665H8.26487L7.83594 7.83029L7.98349 8.43832H8.29402L8.50879 7.87988L8.76063 8.43832H9.02ZM7.89608 8.43832L7.4679 8.13005L7.02536 8.43832H7.2232L6.79427 8.87196L6.94183 9.47998H7.25235L7.46713 8.92155L7.71897 9.47998H7.97833L8.14392 8.87196L7.65365 8.43832H7.89608ZM6.06059 8.87196L5.895 9.47998H5.63563L5.38379 8.92155L5.16902 9.47998H4.85849L4.71094 8.87196L5.13987 8.43832H4.94203L5.38456 8.13005L5.81275 8.43832H5.57031L6.06059 8.87196ZM6.21068 8.43832H5.90016L5.75261 7.83029L6.18153 7.39665H5.98369L6.42623 7.08839L6.85442 7.39665H6.61198L7.10226 7.83029L6.93666 8.43832H6.6773L6.42546 7.87988L6.21068 8.43832ZM4.85333 8.43832L5.01893 7.83029L4.52865 7.39665H4.77108L4.3429 7.08839L3.90036 7.39665H4.0982L3.66927 7.83029L3.81683 8.43832H4.12735L4.34213 7.87988L4.59397 8.43832H4.85333ZM8.14392 6.78863L7.97833 7.39665H7.71897L7.46713 6.83822L7.25235 7.39665H6.94183L6.79427 6.78863L7.2232 6.35498H7.02536L7.4679 6.04672L7.89609 6.35498H7.65365L8.14392 6.78863ZM5.81275 6.35498L5.38456 6.04672L4.94202 6.35498H5.13987L4.71094 6.78863L4.85849 7.39665H5.16902L5.38379 6.83822L5.63563 7.39665H5.895L6.06059 6.78863L5.57031 6.35498H5.81275Z" fill="#F7FCFF"/>
</g>
</svg>
