<svg width="18" height="13" viewBox="0 0 18 13" fill="none" xmlns="http://www.w3.org/2000/svg">
<mask id="mask0_889_4150" style="mask-type:alpha" maskUnits="userSpaceOnUse" x="0" y="0" width="18" height="13">
<rect width="17.3333" height="13" fill="white"/>
</mask>
<g mask="url(#mask0_889_4150)">
<path fill-rule="evenodd" clip-rule="evenodd" d="M0 0V13H17.3333V0H0Z" fill="#FFB400"/>
<mask id="mask1_889_4150" style="mask-type:alpha" maskUnits="userSpaceOnUse" x="0" y="0" width="18" height="13">
<path fill-rule="evenodd" clip-rule="evenodd" d="M0 0V13H17.3333V0H0Z" fill="white"/>
</mask>
<g mask="url(#mask1_889_4150)">
<path fill-rule="evenodd" clip-rule="evenodd" d="M0 0V3.25H17.3333V0H0Z" fill="#C51918"/>
<path fill-rule="evenodd" clip-rule="evenodd" d="M0 9.75V13H17.3333V9.75H0Z" fill="#C51918"/>
<rect x="2.71289" y="5.56396" width="0.606667" height="3.15467" fill="#F1F9FF"/>
<path fill-rule="evenodd" clip-rule="evenodd" d="M3.56075 5.01807H2.46875V5.3214H2.65156V5.56388H3.37956V5.3214H3.56075V5.01807Z" fill="#C88A02"/>
<path fill-rule="evenodd" clip-rule="evenodd" d="M3.3807 8.90038H3.5627V9.20371H2.4707V8.90038H2.6527V8.65771H3.3807V8.90038Z" fill="#C88A02"/>
<path fill-rule="evenodd" clip-rule="evenodd" d="M3.01646 5.07847C3.14849 5.07847 3.1619 5.02875 3.23979 4.95451C3.30027 4.89685 3.44113 4.82535 3.44113 4.7448C3.44113 4.56052 3.251 4.41113 3.01646 4.41113C2.78193 4.41113 2.5918 4.56052 2.5918 4.7448C2.5918 4.83454 2.6888 4.89454 2.76214 4.95451C2.83941 5.01769 2.89614 5.07847 3.01646 5.07847Z" fill="#AD1619"/>
<path fill-rule="evenodd" clip-rule="evenodd" d="M2.46875 9.20361H3.56075V9.68895C3.56075 9.68895 3.42425 9.62828 3.28775 9.62828C3.15125 9.62828 3.01475 9.68895 3.01475 9.68895C3.01475 9.68895 2.87825 9.62828 2.74175 9.62828C2.60525 9.62828 2.46875 9.68895 2.46875 9.68895V9.20361Z" fill="#005BBF"/>
<mask id="mask2_889_4150" style="mask-type:alpha" maskUnits="userSpaceOnUse" x="2" y="9" width="2" height="1">
<path fill-rule="evenodd" clip-rule="evenodd" d="M2.46875 9.20361H3.56075V9.68895C3.56075 9.68895 3.42425 9.62828 3.28775 9.62828C3.15125 9.62828 3.01475 9.68895 3.01475 9.68895C3.01475 9.68895 2.87825 9.62828 2.74175 9.62828C2.60525 9.62828 2.46875 9.68895 2.46875 9.68895V9.20361Z" fill="white"/>
</mask>
<g mask="url(#mask2_889_4150)">
<path d="M2.45938 9.59357L2.43555 9.53546C2.5339 9.49169 2.63261 9.46973 2.73146 9.46973C2.79533 9.46973 2.82868 9.47863 2.88538 9.50386C2.93518 9.52603 2.96099 9.53292 3.01546 9.53292C3.06992 9.53292 3.09574 9.52603 3.14554 9.50386C3.20224 9.47863 3.23559 9.46973 3.29946 9.46973C3.39831 9.46973 3.49702 9.49169 3.59537 9.53546L3.57154 9.59357C3.48056 9.55309 3.38993 9.53292 3.29946 9.53292C3.24499 9.53292 3.21918 9.53981 3.16938 9.56198C3.11268 9.58721 3.07933 9.59612 3.01546 9.59612C2.95159 9.59612 2.91824 9.58721 2.86154 9.56198C2.81174 9.53981 2.78593 9.53292 2.73146 9.53292C2.64098 9.53292 2.55036 9.55309 2.45938 9.59357Z" fill="#F2F2F2"/>
<path d="M2.45938 9.41145L2.43555 9.35333C2.5339 9.30956 2.63261 9.2876 2.73146 9.2876C2.79533 9.2876 2.82868 9.2965 2.88538 9.32174C2.93518 9.3439 2.96099 9.35079 3.01546 9.35079C3.06992 9.35079 3.09574 9.3439 3.14554 9.32174C3.20224 9.2965 3.23559 9.2876 3.29946 9.2876C3.39831 9.2876 3.49702 9.30956 3.59537 9.35333L3.57154 9.41145C3.48056 9.37096 3.38993 9.35079 3.29946 9.35079C3.24499 9.35079 3.21918 9.35769 3.16938 9.37985C3.11268 9.40508 3.07933 9.41399 3.01546 9.41399C2.95159 9.41399 2.91824 9.40508 2.86154 9.37985C2.81174 9.35769 2.78593 9.35079 2.73146 9.35079C2.64098 9.35079 2.55036 9.37096 2.45938 9.41145Z" fill="#F2F2F2"/>
</g>
<rect x="8.6582" y="5.56396" width="0.606667" height="3.15467" fill="#F1F9FF"/>
<path fill-rule="evenodd" clip-rule="evenodd" d="M9.50606 5.01807H8.41406V5.3214H8.59727V5.56385H9.32527V5.3214H9.50606V5.01807Z" fill="#C88A02"/>
<path fill-rule="evenodd" clip-rule="evenodd" d="M9.32406 8.90038H9.50606V9.20371H8.41406V8.90038H8.59606V8.65771H9.32406V8.90038Z" fill="#C88A02"/>
<path fill-rule="evenodd" clip-rule="evenodd" d="M8.96178 5.07847C9.0938 5.07847 9.10722 5.02875 9.18511 4.95451C9.24559 4.89685 9.38644 4.82535 9.38644 4.7448C9.38644 4.56052 9.19631 4.41113 8.96178 4.41113C8.72724 4.41113 8.53711 4.56052 8.53711 4.7448C8.53711 4.83454 8.63411 4.89454 8.70745 4.95451C8.78473 5.01769 8.84145 5.07847 8.96178 5.07847Z" fill="#AD1619"/>
<path fill-rule="evenodd" clip-rule="evenodd" d="M8.41406 9.20361H9.50606V9.68895C9.50606 9.68895 9.36956 9.62828 9.23306 9.62828C9.09656 9.62828 8.96006 9.68895 8.96006 9.68895C8.96006 9.68895 8.82356 9.62828 8.68706 9.62828C8.55056 9.62828 8.41406 9.68895 8.41406 9.68895V9.20361Z" fill="#005BBF"/>
<mask id="mask3_889_4150" style="mask-type:alpha" maskUnits="userSpaceOnUse" x="8" y="9" width="2" height="1">
<path fill-rule="evenodd" clip-rule="evenodd" d="M8.41406 9.20361H9.50606V9.68895C9.50606 9.68895 9.36956 9.62828 9.23306 9.62828C9.09656 9.62828 8.96006 9.68895 8.96006 9.68895C8.96006 9.68895 8.82356 9.62828 8.68706 9.62828C8.55056 9.62828 8.41406 9.68895 8.41406 9.68895V9.20361Z" fill="white"/>
</mask>
<g mask="url(#mask3_889_4150)">
<path d="M8.40469 9.59357L8.38086 9.53546C8.47921 9.49169 8.57792 9.46973 8.67677 9.46973C8.74064 9.46973 8.77399 9.47863 8.83069 9.50386C8.88049 9.52603 8.90631 9.53292 8.96077 9.53292C9.01524 9.53292 9.04105 9.52603 9.09085 9.50386C9.14755 9.47863 9.1809 9.46973 9.24477 9.46973C9.34362 9.46973 9.44233 9.49169 9.54068 9.53546L9.51685 9.59357C9.42587 9.55309 9.33525 9.53292 9.24477 9.53292C9.1903 9.53292 9.16449 9.53981 9.11469 9.56198C9.05799 9.58721 9.02464 9.59612 8.96077 9.59612C8.8969 9.59612 8.86355 9.58721 8.80686 9.56198C8.75705 9.53981 8.73124 9.53292 8.67677 9.53292C8.5863 9.53292 8.49567 9.55309 8.40469 9.59357Z" fill="#F2F2F2"/>
<path d="M8.40469 9.41193L8.38086 9.35382C8.47921 9.31005 8.57792 9.28809 8.67677 9.28809C8.74064 9.28809 8.77399 9.29699 8.83069 9.32222C8.88049 9.34439 8.90631 9.35128 8.96077 9.35128C9.01524 9.35128 9.04105 9.34439 9.09085 9.32222C9.14755 9.29699 9.1809 9.28809 9.24477 9.28809C9.34362 9.28809 9.44233 9.31005 9.54068 9.35382L9.51685 9.41193C9.42587 9.37145 9.33525 9.35128 9.24477 9.35128C9.1903 9.35128 9.16449 9.35817 9.11469 9.38034C9.05799 9.40557 9.02464 9.41447 8.96077 9.41447C8.8969 9.41447 8.86355 9.40557 8.80686 9.38034C8.75705 9.35817 8.73124 9.35128 8.67677 9.35128C8.5863 9.35128 8.49567 9.37145 8.40469 9.41193Z" fill="#F2F2F2"/>
</g>
<path fill-rule="evenodd" clip-rule="evenodd" d="M9.04961 8.11133C9.04961 8.23946 9.11077 8.36009 9.22015 8.4927L9.59267 8.18545L9.62824 8.17452L9.64806 8.01927C9.68469 7.73248 9.56212 7.57361 9.30955 7.45876L9.29215 7.4511C9.25753 7.4359 9.182 7.40274 9.15649 7.39051C9.10317 7.36494 9.0592 7.33959 9.01817 7.30975C8.97771 7.28032 8.93428 7.25257 8.8819 7.22218C9.19447 7.17196 9.36337 7.13492 9.49294 7.0791C9.80302 6.9455 9.84301 6.63525 9.54499 6.43001C9.13867 6.15019 8.05093 6.12502 7.57354 6.37151L7.79619 6.80275C8.03046 6.6818 8.56305 6.65899 8.93602 6.72105C8.8793 6.73096 8.8157 6.7414 8.74441 6.7526L8.53134 6.78562C8.38236 6.80878 8.28073 6.83821 8.20542 6.88948C8.0517 6.99414 8.02892 7.18271 8.13862 7.32181C8.18493 7.38055 8.24549 7.42448 8.33712 7.47763C8.36653 7.49469 8.39818 7.51207 8.44069 7.53475L8.46289 7.54654L8.54506 7.59024C8.63252 7.63721 8.6899 7.67112 8.73272 7.70226C8.79979 7.75104 8.86858 7.79069 8.94666 7.82813C8.98866 7.84827 9.10931 7.90086 9.10865 7.90057L9.11577 7.90377C9.07365 7.96077 9.04961 8.03055 9.04961 8.11133ZM2.70199 8.49316C2.81136 8.36055 2.87253 8.23992 2.87253 8.11179C2.87253 8.031 2.84849 7.96122 2.80637 7.90422L2.81348 7.90102C2.81283 7.90132 2.93347 7.84873 2.97548 7.82859C3.05356 7.79115 3.12235 7.75149 3.18942 7.70272C3.23224 7.67158 3.28961 7.63766 3.37707 7.5907L3.4593 7.54696L3.48145 7.5352C3.52395 7.51252 3.55561 7.49514 3.58501 7.47808C3.67665 7.42493 3.7372 7.381 3.78352 7.32227C3.89321 7.18316 3.87044 6.9946 3.71672 6.88994C3.6414 6.83866 3.53977 6.80924 3.3908 6.78608L3.17773 6.75305C3.10644 6.74186 3.04283 6.73141 2.98611 6.72151C3.35909 6.65944 3.89167 6.68225 4.12594 6.80321L4.3486 6.37196C3.8712 6.12548 2.78347 6.15065 2.37715 6.43047C2.07912 6.63571 2.11911 6.94596 2.42919 7.07955C2.55876 7.13538 2.72767 7.17242 3.04024 7.22264C2.98786 7.25302 2.94443 7.28078 2.90397 7.31021C2.86293 7.34005 2.81897 7.36539 2.76564 7.39096C2.74014 7.40319 2.66461 7.43636 2.62999 7.45155L2.62999 7.45156L2.61259 7.45922C2.36002 7.57406 2.23744 7.73293 2.27407 8.01973L2.2939 8.17497L2.32947 8.1859L2.70199 8.49316ZM2.38918 8.09147L2.38841 8.0937L2.389 8.09212L2.38918 8.09147Z" fill="#AD1619"/>
<path d="M3.20871 6.7168L3.38777 6.75384V7.02074C3.19706 7.17292 2.71289 7.42939 2.71289 7.42939V6.7168H3.20871Z" fill="#F1F9FF"/>
<path d="M8.83621 6.7168L8.65715 6.75384V7.02074C8.84786 7.17292 9.33203 7.42939 9.33203 7.42939V6.7168H8.83621Z" fill="#F1F9FF"/>
<path fill-rule="evenodd" clip-rule="evenodd" d="M8.00458 3.90313V3.81431C7.69253 3.59036 7.36576 3.47838 7.02425 3.47838C6.69676 3.33346 6.36527 3.27723 6.02978 3.3097C6.02987 3.30867 6.02992 3.30815 6.02992 3.30815C5.52564 3.2588 5.01743 3.47842 5.01743 3.47842C4.50517 3.47842 4.03711 3.81435 4.03711 3.81435V3.90317L4.64899 4.51771C4.64899 4.51771 4.82125 5.10931 6.02773 4.97015V4.97165C6.02773 4.97165 6.82634 4.94985 6.88246 4.93119C6.90472 4.92378 6.92781 4.91704 6.95141 4.91015C7.10783 4.86448 7.2864 4.81235 7.3927 4.51767L8.00458 3.90313ZM6.02773 3.33329C6.01121 3.52674 5.9097 4.77583 6.02773 4.96653V3.33329Z" fill="#AD1619"/>
<path fill-rule="evenodd" clip-rule="evenodd" d="M4.50221 4.41457L4.50262 4.41268L4.07227 4.00779L4.11384 3.96361L4.51766 4.34353L4.52799 4.296C4.59408 4.31037 4.64238 4.31565 4.67053 4.31266V4.23022L4.76007 4.27868C4.80411 4.30251 4.86719 4.30892 4.95026 4.29541C5.01127 4.28548 5.05244 4.21462 5.06591 4.06362L5.09308 3.75879L5.18425 4.05093C5.2255 4.18313 5.28843 4.24141 5.37802 4.24141C5.46552 4.24141 5.5007 4.20933 5.50458 4.12847L5.51559 3.89914L5.6193 4.10398C5.65666 4.17777 5.70819 4.21125 5.78145 4.21125C5.88624 4.21125 5.95623 4.12389 5.95623 3.98683H5.9585H6.07757H6.07983C6.07983 4.12389 6.14983 4.21125 6.25461 4.21125C6.32788 4.21125 6.3794 4.17777 6.41677 4.10398L6.52048 3.89914L6.53149 4.12847C6.53537 4.20933 6.57054 4.24141 6.65805 4.24141C6.74764 4.24141 6.81057 4.18313 6.85182 4.05093L6.94298 3.75879L6.97016 4.06362C6.98362 4.21462 7.02479 4.28548 7.08581 4.29541C7.16888 4.30892 7.23196 4.30251 7.276 4.27868L7.36554 4.23022V4.31266C7.39369 4.31565 7.44199 4.31037 7.50807 4.296L7.52732 4.38452L7.97471 3.96361L8.01628 4.00779L7.45982 4.53132C7.37863 4.68084 7.33775 4.77952 7.33775 4.82052C7.33775 4.88306 7.17504 4.92018 6.85748 4.95831C6.60855 4.98819 6.31473 5.00825 6.07449 5.01123V5.01161L6.04427 5.01151L6.01405 5.01161V5.01123C5.77381 5.00825 5.47999 4.98819 5.23106 4.95831C4.9135 4.92018 4.75079 4.88306 4.75079 4.82052C4.75079 4.81246 4.74921 4.80218 4.74606 4.78973C4.71516 4.74951 4.69321 4.68517 4.67841 4.62648C4.66399 4.59752 4.64743 4.56577 4.62872 4.53132L4.50534 4.41524L4.50221 4.41457ZM7.48509 4.42425C7.38549 4.44193 7.31358 4.44019 7.27545 4.40915C7.21591 4.42648 7.14606 4.42814 7.06632 4.41516C6.98115 4.4013 6.92184 4.34465 6.88615 4.25067C6.83939 4.31025 6.78022 4.34694 6.70932 4.35865C7.09763 4.41371 7.36966 4.49112 7.36966 4.49112C7.36966 4.49112 7.36272 4.5506 7.3458 4.61969C7.36342 4.5834 7.38443 4.5429 7.40886 4.49805L7.41471 4.49047L7.48509 4.42425ZM6.52745 4.33574C6.49342 4.31896 6.46626 4.29454 6.44666 4.26301C6.41758 4.28869 6.3845 4.30744 6.34773 4.31896C6.40915 4.32366 6.46919 4.32934 6.52745 4.33574ZM6.13447 4.30718C6.08696 4.28532 6.04748 4.2502 6.01803 4.20516C5.9888 4.24989 5.94966 4.28483 5.90259 4.30672C5.93036 4.30589 5.95828 4.3053 5.98634 4.30498V4.30469L6.01126 4.30476L6.03619 4.30469V4.30498C6.06914 4.30535 6.10192 4.3061 6.13447 4.30718ZM4.66964 4.48652L4.61276 4.43301C4.68065 4.43974 4.7309 4.43335 4.76062 4.40915C4.82016 4.42648 4.89 4.42814 4.96975 4.41516C5.05491 4.4013 5.11423 4.34465 5.14992 4.25067C5.19535 4.30855 5.25249 4.34483 5.32073 4.35759C4.98509 4.40475 4.73492 4.46895 4.66964 4.48652ZM5.68574 4.31813C5.62657 4.32253 5.56863 4.32786 5.51232 4.33387C5.54462 4.31717 5.57052 4.29339 5.5894 4.26301C5.6178 4.28808 5.65001 4.30655 5.68574 4.31813ZM7.17737 4.82176C7.22055 4.84197 7.25502 4.82118 7.28216 4.78191C7.2796 4.79313 7.278 4.80322 7.27738 4.81221C7.27383 4.81454 7.26837 4.81735 7.26121 4.82036C7.24123 4.82876 7.21071 4.83771 7.17101 4.84676C7.09297 4.86457 6.98189 4.88227 6.85025 4.89807C6.5931 4.92895 6.28732 4.94926 6.04427 4.95084C5.80123 4.94926 5.49544 4.92895 5.23829 4.89807C5.10665 4.88227 4.99557 4.86457 4.91753 4.84676C4.88452 4.83923 4.85786 4.83178 4.83832 4.82465L4.84516 4.82176C4.97752 4.75983 5.85185 4.7017 6.01126 4.69155C6.17068 4.7017 7.04501 4.75983 7.17737 4.82176ZM7.34427 4.81038L7.34335 4.81145L7.3439 4.81067L7.34427 4.81038Z" fill="#C88A02"/>
<path fill-rule="evenodd" clip-rule="evenodd" d="M6.01794 2.89623C6.11845 2.89623 6.19994 2.81474 6.19994 2.71423C6.19994 2.61371 6.11845 2.53223 6.01794 2.53223C5.91742 2.53223 5.83594 2.61371 5.83594 2.71423C5.83594 2.81474 5.91742 2.89623 6.01794 2.89623Z" fill="#005BBF"/>
<path fill-rule="evenodd" clip-rule="evenodd" d="M5.90189 3.78934C5.90581 3.80947 5.91194 3.82821 5.91969 3.84489C5.89604 3.83574 5.86788 3.83044 5.83765 3.83044C5.75389 3.83044 5.68599 3.87118 5.68599 3.92144C5.68599 3.97169 5.75389 4.01244 5.83765 4.01244C5.91899 4.01244 5.98538 3.97402 5.98915 3.92578C5.99292 3.97402 6.05931 4.01244 6.14065 4.01244C6.22441 4.01244 6.29231 3.97169 6.29231 3.92144C6.29231 3.87118 6.22441 3.83044 6.14065 3.83044C6.11989 3.83044 6.10011 3.83294 6.0821 3.83747C6.08648 3.81261 6.08628 3.78411 6.08055 3.75461C6.06457 3.67239 6.01162 3.6135 5.96228 3.62309C5.91295 3.63268 5.88591 3.70711 5.90189 3.78934ZM5.00878 3.90531C5.00114 3.88876 4.99509 3.87021 4.99122 3.85027C4.97523 3.76805 5.00227 3.69362 5.05161 3.68403C5.10094 3.67444 5.15389 3.73332 5.16987 3.81555C5.17561 3.84505 5.1758 3.87355 5.17142 3.89841C5.18988 3.89361 5.21026 3.89095 5.23166 3.89095C5.31543 3.89095 5.38333 3.93169 5.38333 3.98195C5.38333 4.03221 5.31543 4.07295 5.23166 4.07295C5.1479 4.07295 5.08 4.03221 5.08 3.98195L5.08004 3.97978L5.07858 3.97929L5.07864 3.98195C5.07864 4.03221 5.01074 4.07295 4.92698 4.07295C4.84321 4.07295 4.77531 4.03221 4.77531 3.98195C4.77531 3.93169 4.84321 3.89095 4.92698 3.89095C4.9571 3.89095 4.98518 3.89622 5.00878 3.90531ZM6.74691 4.02966C6.82623 4.0408 6.89636 4.01305 6.90847 3.96709C6.90727 4.01468 6.9671 4.06081 7.04652 4.07198C7.12947 4.08363 7.20238 4.05274 7.20938 4.00297C7.21637 3.9532 7.1548 3.9034 7.07185 3.89175C7.05124 3.88885 7.03124 3.88858 7.01273 3.89058C7.02051 3.86659 7.02427 3.83837 7.0227 3.80839C7.01832 3.72474 6.97408 3.65907 6.92389 3.6617C6.8737 3.66433 6.83657 3.73427 6.84095 3.81792C6.84201 3.83813 6.84539 3.85728 6.85063 3.87469C6.82863 3.86258 6.8018 3.85358 6.77224 3.84943C6.6893 3.83777 6.61638 3.86867 6.60939 3.91844C6.60239 3.9682 6.66397 4.018 6.74691 4.02966ZM7.48641 4.20156C7.56037 4.24089 7.63945 4.23679 7.66304 4.19242L7.6645 4.18947C7.67184 4.19731 7.68054 4.20301 7.69048 4.20605C7.73855 4.22075 7.79736 4.16772 7.82185 4.08762C7.84634 4.00752 7.82723 3.93067 7.77917 3.91597C7.73111 3.90128 7.67229 3.9543 7.6478 4.03441C7.64178 4.05411 7.63839 4.07362 7.63743 4.09205C7.62085 4.07291 7.5985 4.05503 7.57185 4.04087C7.49789 4.00154 7.41881 4.00564 7.39522 4.05001C7.37162 4.09439 7.41245 4.16224 7.48641 4.20156ZM4.51017 4.22018C4.43621 4.25951 4.35713 4.25541 4.33354 4.21104C4.33302 4.21007 4.33253 4.20908 4.33208 4.20809C4.32474 4.21593 4.31604 4.22163 4.3061 4.22467C4.25803 4.23937 4.19922 4.18634 4.17473 4.10624C4.15024 4.02614 4.16935 3.94929 4.21741 3.93459C4.26547 3.9199 4.32429 3.97292 4.34878 4.05303C4.3548 4.07273 4.35819 4.09224 4.35915 4.11067C4.37573 4.09153 4.39808 4.07365 4.42473 4.05949C4.49869 4.02016 4.57777 4.02426 4.60136 4.06863C4.62496 4.11301 4.58413 4.18086 4.51017 4.22018Z" fill="#C88A02"/>
<path fill-rule="evenodd" clip-rule="evenodd" d="M5.95182 2.20801H6.07821V2.28799H6.16002V2.41438H6.07821V2.66715H6.16002V2.79354H5.86719V2.66715H5.95182V2.41438H5.86719V2.28799H5.95182V2.20801Z" fill="#C88A02"/>
<rect x="5.92773" y="2.89453" width="0.242667" height="0.788667" fill="#C88A02"/>
<path d="M4.95167 3.02665L4.95061 3.08731C4.41268 3.07792 4.10411 3.15642 4.02579 3.31288C3.94481 3.47464 3.95987 3.67127 4.07333 3.90485L4.01877 3.93136C3.8977 3.68214 3.88117 3.46624 3.97154 3.28572C4.06456 3.09991 4.39098 3.01686 4.95167 3.02665Z" fill="#F2F2F2"/>
<path d="M5.05454 3.56472L5.02343 3.61681C4.90629 3.54686 4.84766 3.42749 4.84766 3.26299C4.84766 3.02656 4.96945 2.88792 5.23885 2.79304C5.41078 2.73249 5.64565 2.75731 5.94412 2.86553L5.92344 2.92256C5.63692 2.81868 5.41522 2.79524 5.259 2.85026C5.0119 2.93729 4.90832 3.05519 4.90832 3.26299C4.90832 3.40735 4.95702 3.5065 5.05454 3.56472Z" fill="#F2F2F2"/>
<path d="M4.14964 3.8118L4.03516 3.85201C3.91638 3.51382 3.9503 3.28415 4.15326 3.18508C4.3321 3.09778 4.59274 3.06225 4.93648 3.07618L4.93157 3.19741C4.60612 3.18422 4.36399 3.21723 4.20649 3.29411C4.0731 3.35922 4.0487 3.52442 4.14964 3.8118Z" fill="#C88A02"/>
<path d="M5.48805 2.94604C5.21064 2.94604 5.09672 3.0136 5.03164 3.21309C4.99016 3.34022 5.03039 3.44873 5.16081 3.55001L5.0864 3.64584C4.91754 3.51472 4.858 3.35412 4.91629 3.17546C4.99923 2.92123 5.16198 2.82471 5.48805 2.82471C5.70176 2.82471 5.86825 2.88085 5.98417 2.99513L6.00225 3.01295V3.59793H5.88091V3.06481C5.79038 2.98617 5.66034 2.94604 5.48805 2.94604Z" fill="#C88A02"/>
<path d="M7.06982 3.0872L7.07088 3.14786C7.60881 3.13846 7.91737 3.21697 7.9957 3.37343C8.07668 3.53518 8.06162 3.73182 7.94815 3.9654L8.00272 3.99191C8.12378 3.74269 8.14032 3.52679 8.04995 3.34627C7.95692 3.16045 7.6305 3.07741 7.06982 3.0872Z" fill="#F2F2F2"/>
<path d="M6.87906 3.57742L6.91016 3.6295C7.02731 3.55956 7.08594 3.44019 7.08594 3.27568C7.08594 3.03926 6.96415 2.90061 6.69475 2.80574C6.52281 2.74518 6.28794 2.77001 5.98947 2.87822L6.01015 2.93526C6.29667 2.83137 6.51837 2.80794 6.67459 2.86296C6.9217 2.94998 7.02527 3.06789 7.02527 3.27568C7.02527 3.42004 6.97657 3.51919 6.87906 3.57742Z" fill="#F2F2F2"/>
<path d="M7.90896 3.87235L8.02344 3.91256C8.14221 3.57437 8.10829 3.3447 7.90533 3.24562C7.72649 3.15832 7.46585 3.1228 7.12211 3.13673L7.12703 3.25796C7.45248 3.24477 7.6946 3.27777 7.85211 3.35466C7.98549 3.41977 8.00989 3.58497 7.90896 3.87235Z" fill="#C88A02"/>
<path d="M6.56468 2.95532C6.8421 2.95532 6.95602 3.02288 7.0211 3.22237C7.06257 3.3495 7.02235 3.45801 6.89192 3.55929L6.96634 3.65512C7.1352 3.52399 7.19473 3.3634 7.13645 3.18474C7.05351 2.93051 6.89076 2.83398 6.56468 2.83398C6.35097 2.83398 6.18449 2.89013 6.06857 3.0044L6.05049 3.02222V3.6072H6.17182V3.07408C6.26235 2.99545 6.3924 2.95532 6.56468 2.95532Z" fill="#C88A02"/>
<path opacity="0.3" fill-rule="evenodd" clip-rule="evenodd" d="M4.04688 5.01807H7.99021V8.56102C7.99021 8.56102 7.69729 9.75007 6.01854 9.75007C4.33979 9.75007 4.04688 8.52966 4.04688 8.52966V5.01807Z" fill="#E1E5E8"/>
<mask id="mask4_889_4150" style="mask-type:alpha" maskUnits="userSpaceOnUse" x="4" y="5" width="4" height="5">
<path fill-rule="evenodd" clip-rule="evenodd" d="M4.04688 5.01807H7.99021V8.56102C7.99021 8.56102 7.69729 9.75007 6.01854 9.75007C4.33979 9.75007 4.04688 8.52966 4.04688 8.52966V5.01807Z" fill="white"/>
</mask>
<g mask="url(#mask4_889_4150)">
<rect x="4.04688" y="7.20215" width="2.002" height="2.366" fill="#FFC034"/>
<rect x="4.28906" y="7.32373" width="0.242667" height="2.24467" fill="#AD1619"/>
<rect x="5.13867" y="7.32373" width="0.242667" height="2.24467" fill="#AD1619"/>
<rect x="4.71484" y="7.32373" width="0.242667" height="2.24467" fill="#AD1619"/>
<rect x="5.56445" y="7.32373" width="0.242667" height="2.24467" fill="#AD1619"/>
<rect x="4.04688" y="4.95752" width="2.002" height="2.30533" fill="#AD1619"/>
<rect x="5.98828" y="7.1416" width="2.002" height="2.30533" fill="#AD1619"/>
<rect x="5.98828" y="5.01807" width="2.12333" height="2.24467" fill="#F1F9FF"/>
<path fill-rule="evenodd" clip-rule="evenodd" d="M4.89753 5.2002H5.07953V5.70335H5.20052V5.45199H5.38252V5.70335H5.56466V6.01792H5.38347V6.58441H5.56466V6.89898H4.47266V6.58441H4.65547V6.01792H4.47266V5.70335H4.59453V5.45199H4.77653V5.70335H4.89753V5.2002Z" fill="#C88A02"/>
<path d="M7.0293 5.30536L7.15354 5.17236L7.41437 5.41602L7.29013 5.54902L7.0293 5.30536Z" fill="#C88A02"/>
<path fill-rule="evenodd" clip-rule="evenodd" d="M7.77839 8.74276V7.41455H6.26172V8.73164L6.26413 8.7419C6.3409 9.06904 6.60236 9.23455 7.02005 9.23455C7.43734 9.23455 7.69876 9.07331 7.77586 8.75327L7.77839 8.74276ZM7.02047 9.05245C6.68534 9.05245 6.50232 8.93957 6.44414 8.71008V7.59645H7.59681V8.72063C7.53877 8.94262 7.35574 9.05245 7.02047 9.05245Z" fill="#FFC034"/>
<path fill-rule="evenodd" clip-rule="evenodd" d="M7.08176 7.52539H6.95537V8.12717L6.45732 7.58548L6.368 7.6676L6.81893 8.15804H6.41032V8.34004H6.72393H6.82736L6.36719 8.84053L6.45651 8.92265L6.95537 8.38008V9.0848H7.08176V8.4439L7.52195 8.92265L7.61126 8.84053L7.15109 8.34004H7.66476V8.15804H7.15952L7.61045 7.6676L7.52113 7.58548L7.08176 8.06335V7.52539Z" fill="#FFC034"/>
<path fill-rule="evenodd" clip-rule="evenodd" d="M7.30296 9.44792C7.30296 9.44792 6.01802 9.54894 6.01802 8.72021C6.01802 8.72021 6.00577 9.44792 4.66406 9.44792V10.1022H7.30296V9.44792Z" fill="#F1F9FF"/>
<path fill-rule="evenodd" clip-rule="evenodd" d="M6.01945 7.68746C6.27074 7.68746 6.47445 7.47017 6.47445 7.20213C6.47445 6.93409 6.27074 6.7168 6.01945 6.7168C5.76816 6.7168 5.56445 6.93409 5.56445 7.20213C5.56445 7.47017 5.76816 7.68746 6.01945 7.68746Z" fill="#005BBF" stroke="#AD1619" stroke-width="0.729167"/>
</g>
</g>
</g>
</svg>
