<svg width="40" height="40" viewBox="0 0 40 40" fill="none" xmlns="http://www.w3.org/2000/svg">
<circle cx="20" cy="20" r="20" fill="white" fill-opacity="0.07"/>
<path d="M28 10.6666H22.6667C21.9303 10.6666 21.3333 11.2636 21.3333 12V17.3333C21.3333 18.0697 21.9303 18.6666 22.6667 18.6666H28C28.7364 18.6666 29.3333 18.0697 29.3333 17.3333V12C29.3333 11.2636 28.7364 10.6666 28 10.6666Z" fill="url(#paint0_linear_2_14370)"/>
<path d="M10 17.3333H18M10 12H18M10 22.6666H30M10 28H30M22.6667 10.6666H28C28.7364 10.6666 29.3333 11.2636 29.3333 12V17.3333C29.3333 18.0697 28.7364 18.6666 28 18.6666H22.6667C21.9303 18.6666 21.3333 18.0697 21.3333 17.3333V12C21.3333 11.2636 21.9303 10.6666 22.6667 10.6666Z" stroke="url(#paint1_linear_2_14370)" stroke-linecap="round" stroke-linejoin="round"/>
<defs>
<linearGradient id="paint0_linear_2_14370" x1="20" y1="10.6666" x2="20" y2="28" gradientUnits="userSpaceOnUse">
<stop stop-color="#5A5A5A"/>
<stop offset="1" stop-color="#212121"/>
</linearGradient>
<linearGradient id="paint1_linear_2_14370" x1="20" y1="10.6666" x2="20" y2="28" gradientUnits="userSpaceOnUse">
<stop stop-color="#C7C7C7"/>
<stop offset="1" stop-color="white" stop-opacity="0.22"/>
</linearGradient>
</defs>
</svg>
