<svg width="40" height="40" viewBox="0 0 40 40" fill="none" xmlns="http://www.w3.org/2000/svg">
<path d="M14.3451 26.9605L14.3356 26.9553L14.3259 26.9505C14.0186 26.7976 13.834 26.4865 13.834 26.0376C13.834 23.8501 15.659 22.0308 17.8639 22.0308H22.1374C24.3485 22.0308 26.1673 23.7712 26.1673 26.0376C26.1673 26.4389 25.9348 26.7906 25.6485 26.9648C24.9826 27.3299 23.3718 27.8335 20.0007 27.8335C16.6164 27.8335 15.0062 27.3259 14.3451 26.9605ZM23.6032 15.7484C23.6032 17.7241 21.9927 19.33 20.0007 19.33C18.0086 19.33 16.3981 17.7241 16.3981 15.7484C16.3981 13.7727 18.0086 12.1667 20.0007 12.1667C21.9927 12.1667 23.6032 13.7727 23.6032 15.7484Z" fill="url(#paint0_linear_1528_18435)" stroke="url(#paint1_linear_1528_18435)"/>
<circle cx="20" cy="20" r="20" fill="white" fill-opacity="0.07"/>
<defs>
<linearGradient id="paint0_linear_1528_18435" x1="20.0007" y1="11.6667" x2="20.0007" y2="28.3335" gradientUnits="userSpaceOnUse">
<stop stop-color="#5A5A5A"/>
<stop offset="1" stop-color="#212121"/>
</linearGradient>
<linearGradient id="paint1_linear_1528_18435" x1="20.0007" y1="11.6667" x2="20.0007" y2="28.3335" gradientUnits="userSpaceOnUse">
<stop stop-color="#C7C7C7"/>
<stop offset="1" stop-color="white" stop-opacity="0.22"/>
</linearGradient>
</defs>
</svg>
