<svg width="40" height="40" viewBox="0 0 40 40" fill="none" xmlns="http://www.w3.org/2000/svg">
<circle cx="20" cy="20" r="20" fill="white" fill-opacity="0.07"/>
<path d="M17.3333 17.3333C17.3333 18.8061 18.5272 20 20 20C21.4728 20 22.6667 18.8061 22.6667 17.3333C22.6667 15.8605 21.4728 14.6666 20 14.6666C18.5272 14.6666 17.3333 15.8605 17.3333 17.3333Z" fill="url(#paint0_linear_2_14770)"/>
<path d="M28 10.6666H12C11.2636 10.6666 10.6667 11.2636 10.6667 12V22.6666C10.6667 23.403 11.2636 24 12 24H28C28.7364 24 29.3333 23.403 29.3333 22.6666V12C29.3333 11.2636 28.7364 10.6666 28 10.6666Z" fill="url(#paint1_linear_2_14770)"/>
<path d="M10 26.6666H30M10 29.3333H30M13.3333 15.3333V13.3333H15.3333M24.6667 13.3333H26.6667V15.3333M13.3333 19.3333V21.3333H15.3333M24.6667 21.3333H26.6667V19.3333M20 20C18.5272 20 17.3333 18.8061 17.3333 17.3333C17.3333 15.8605 18.5272 14.6666 20 14.6666C21.4728 14.6666 22.6667 15.8605 22.6667 17.3333C22.6667 18.8061 21.4728 20 20 20ZM12 10.6666H28C28.7364 10.6666 29.3333 11.2636 29.3333 12V22.6666C29.3333 23.403 28.7364 24 28 24H12C11.2636 24 10.6667 23.403 10.6667 22.6666V12C10.6667 11.2636 11.2636 10.6666 12 10.6666Z" stroke="url(#paint2_linear_2_14770)" stroke-linecap="round" stroke-linejoin="round"/>
<defs>
<linearGradient id="paint0_linear_2_14770" x1="20" y1="10.6666" x2="20" y2="29.3333" gradientUnits="userSpaceOnUse">
<stop stop-color="#5A5A5A"/>
<stop offset="1" stop-color="#212121"/>
</linearGradient>
<linearGradient id="paint1_linear_2_14770" x1="20" y1="10.6666" x2="20" y2="29.3333" gradientUnits="userSpaceOnUse">
<stop stop-color="#5A5A5A"/>
<stop offset="1" stop-color="#212121"/>
</linearGradient>
<linearGradient id="paint2_linear_2_14770" x1="20" y1="10.6666" x2="20" y2="29.3333" gradientUnits="userSpaceOnUse">
<stop stop-color="#C7C7C7"/>
<stop offset="1" stop-color="white" stop-opacity="0.22"/>
</linearGradient>
</defs>
</svg>
