<svg width="40" height="40" viewBox="0 0 40 40" fill="none" xmlns="http://www.w3.org/2000/svg">
<circle cx="20" cy="20" r="20" fill="white" fill-opacity="0.07"/>
<path fill-rule="evenodd" clip-rule="evenodd" d="M23.2167 12H14C13.4477 12 13 12.4477 13 13V28C13 28.5523 13.4477 29 14 29H27C27.5523 29 28 28.5523 28 28V16.7377L23.2167 12Z" fill="url(#paint0_linear_2_14351)"/>
<path d="M23.2167 12L23.5686 11.6448C23.4749 11.552 23.3485 11.5 23.2167 11.5V12ZM28 16.7377H28.5C28.5 16.6043 28.4467 16.4764 28.3519 16.3825L28 16.7377ZM14 12.5H23.2167V11.5H14V12.5ZM13.5 13C13.5 12.7239 13.7239 12.5 14 12.5V11.5C13.1716 11.5 12.5 12.1716 12.5 13H13.5ZM13.5 28V13H12.5V28H13.5ZM14 28.5C13.7239 28.5 13.5 28.2761 13.5 28H12.5C12.5 28.8284 13.1716 29.5 14 29.5V28.5ZM27 28.5H14V29.5H27V28.5ZM27.5 28C27.5 28.2761 27.2761 28.5 27 28.5V29.5C27.8284 29.5 28.5 28.8284 28.5 28H27.5ZM27.5 16.7377V28H28.5V16.7377H27.5ZM28.3519 16.3825L23.5686 11.6448L22.8649 12.3552L27.6481 17.093L28.3519 16.3825Z" fill="url(#paint1_linear_2_14351)"/>
<path fill-rule="evenodd" clip-rule="evenodd" d="M20.2656 17H24V20.7344H23.3776V18.0625L16.4401 25L16 24.5599L22.9375 17.6224H20.2656V17Z" fill="url(#paint2_linear_2_14351)"/>
<defs>
<linearGradient id="paint0_linear_2_14351" x1="20.4375" y1="12" x2="20.4375" y2="29" gradientUnits="userSpaceOnUse">
<stop stop-color="#5A5A5A"/>
<stop offset="1" stop-color="#212121"/>
</linearGradient>
<linearGradient id="paint1_linear_2_14351" x1="20.4375" y1="12" x2="20.4375" y2="29" gradientUnits="userSpaceOnUse">
<stop stop-color="#C7C7C7"/>
<stop offset="1" stop-color="white" stop-opacity="0.22"/>
</linearGradient>
<linearGradient id="paint2_linear_2_14351" x1="24" y1="17" x2="17.1536" y2="23.8464" gradientUnits="userSpaceOnUse">
<stop stop-color="#C7C7C7"/>
<stop offset="1" stop-color="#575757"/>
</linearGradient>
</defs>
</svg>
