<svg width="351" height="271" viewBox="0 0 351 271" fill="none" xmlns="http://www.w3.org/2000/svg">
<mask id="path-1-inside-1_321_7427" fill="white">
<path fill-rule="evenodd" clip-rule="evenodd" d="M201.127 236.058C118.459 236.058 51.4445 183.214 51.4445 118.029C51.4445 52.8433 118.459 0 201.127 0C283.794 0 350.809 52.8433 350.809 118.029C350.809 157.814 325.844 193.002 287.594 214.384C286.976 214.729 286.579 215.374 286.557 216.082L285.049 266.918C284.999 268.6 283.022 269.472 281.747 268.376L240.298 232.775C239.827 232.37 239.195 232.208 238.586 232.331C226.614 234.764 214.062 236.058 201.127 236.058Z"/>
</mask>
<path fill-rule="evenodd" clip-rule="evenodd" d="M201.127 236.058C118.459 236.058 51.4445 183.214 51.4445 118.029C51.4445 52.8433 118.459 0 201.127 0C283.794 0 350.809 52.8433 350.809 118.029C350.809 157.814 325.844 193.002 287.594 214.384C286.976 214.729 286.579 215.374 286.557 216.082L285.049 266.918C284.999 268.6 283.022 269.472 281.747 268.376L240.298 232.775C239.827 232.37 239.195 232.208 238.586 232.331C226.614 234.764 214.062 236.058 201.127 236.058Z" fill="url(#paint0_linear_321_7427)"/>
<path d="M240.298 232.775L235.086 238.843L240.298 232.775ZM238.586 232.331L236.993 224.492L238.586 232.331ZM285.049 266.918L277.052 266.681L285.049 266.918ZM281.747 268.376L286.959 262.308L281.747 268.376ZM287.594 214.384L291.498 221.367L287.594 214.384ZM286.557 216.082L294.554 216.32L286.557 216.082ZM59.4445 118.029C59.4445 177.129 121.002 228.058 201.127 228.058V244.058C115.917 244.058 43.4445 189.3 43.4445 118.029H59.4445ZM201.127 8C121.002 8 59.4445 58.9285 59.4445 118.029H43.4445C43.4445 46.7581 115.917 -8 201.127 -8V8ZM342.809 118.029C342.809 58.9285 281.251 8 201.127 8V-8C286.336 -8 358.809 46.7581 358.809 118.029H342.809ZM283.691 207.401C320.092 187.052 342.809 154.213 342.809 118.029H358.809C358.809 161.416 331.597 198.951 291.498 221.367L283.691 207.401ZM277.052 266.681L278.561 215.845L294.554 216.32L293.045 267.156L277.052 266.681ZM245.511 226.706L286.959 262.308L276.534 274.445L235.086 238.843L245.511 226.706ZM201.127 228.058C213.529 228.058 225.547 226.817 236.993 224.492L240.179 240.171C227.681 242.711 214.595 244.058 201.127 244.058V228.058ZM235.086 238.843C236.505 240.063 238.39 240.535 240.179 240.171L236.993 224.492C240 223.881 243.149 224.677 245.511 226.706L235.086 238.843ZM293.045 267.156C292.796 275.562 282.913 279.924 276.534 274.445L286.959 262.308C283.132 259.02 277.202 261.638 277.052 266.681L293.045 267.156ZM291.498 221.367C293.295 220.362 294.49 218.469 294.554 216.32L278.561 215.845C278.667 212.28 280.657 209.097 283.691 207.401L291.498 221.367Z" fill="url(#paint1_linear_321_7427)" mask="url(#path-1-inside-1_321_7427)"/>
<path fill-rule="evenodd" clip-rule="evenodd" d="M136.221 232.802C211.007 232.802 271.634 185.011 271.634 126.058C271.634 67.1049 211.007 19.314 136.221 19.314C61.4349 19.314 0.808594 67.1049 0.808594 126.058C0.808594 162.152 23.5347 194.063 58.3225 213.382C58.9441 213.727 59.344 214.374 59.3651 215.084L60.9493 268.462C60.9992 270.144 62.9757 271.016 64.2515 269.92L109.125 231.376C109.569 230.995 110.158 230.828 110.737 230.915C118.99 232.154 127.51 232.802 136.221 232.802Z" fill="#0C0C0C"/>
<mask id="path-4-inside-2_321_7427" fill="white">
<path fill-rule="evenodd" clip-rule="evenodd" d="M135.141 222.109C200.919 222.109 254.243 180.074 254.243 128.222C254.243 76.3702 200.919 34.3357 135.141 34.3357C69.3628 34.3357 16.0391 76.3702 16.0391 128.222C16.0391 159.929 35.9768 187.964 66.5084 204.963C67.1297 205.309 67.5296 205.955 67.5506 206.666L68.9248 252.97C68.9747 254.651 70.9513 255.523 72.2271 254.428L111.228 220.928C111.672 220.546 112.261 220.379 112.84 220.466C120.064 221.544 127.519 222.109 135.141 222.109Z"/>
</mask>
<path fill-rule="evenodd" clip-rule="evenodd" d="M135.141 222.109C200.919 222.109 254.243 180.074 254.243 128.222C254.243 76.3702 200.919 34.3357 135.141 34.3357C69.3628 34.3357 16.0391 76.3702 16.0391 128.222C16.0391 159.929 35.9768 187.964 66.5084 204.963C67.1297 205.309 67.5296 205.955 67.5506 206.666L68.9248 252.97C68.9747 254.651 70.9513 255.523 72.2271 254.428L111.228 220.928C111.672 220.546 112.261 220.379 112.84 220.466C120.064 221.544 127.519 222.109 135.141 222.109Z" fill="url(#paint2_linear_321_7427)"/>
<path d="M111.228 220.928L116.441 226.996L111.228 220.928ZM112.84 220.466L114.021 212.553L112.84 220.466ZM68.9248 252.97L60.9284 253.207L68.9248 252.97ZM66.5084 204.963L70.4 197.973L66.5084 204.963ZM67.5506 206.666L59.5542 206.903L67.5506 206.666ZM246.243 128.222C246.243 173.987 198.379 214.109 135.141 214.109V230.109C203.459 230.109 262.243 186.162 262.243 128.222H246.243ZM135.141 42.3357C198.379 42.3357 246.243 82.4573 246.243 128.222H262.243C262.243 70.283 203.459 26.3357 135.141 26.3357V42.3357ZM24.0391 128.222C24.0391 82.4573 71.903 42.3357 135.141 42.3357V26.3357C66.8226 26.3357 8.03906 70.283 8.03906 128.222H24.0391ZM70.4 197.973C41.7198 182.005 24.0391 156.319 24.0391 128.222H8.03906C8.03906 163.538 30.2338 193.923 62.6168 211.952L70.4 197.973ZM76.9213 252.732L75.5471 206.428L59.5542 206.903L60.9284 253.207L76.9213 252.732ZM106.016 214.859L67.0145 248.359L77.4398 260.496L116.441 226.996L106.016 214.859ZM135.141 214.109C127.914 214.109 120.853 213.574 114.021 212.553L111.658 228.378C119.274 229.515 127.124 230.109 135.141 230.109V214.109ZM116.441 226.996C115.102 228.146 113.351 228.631 111.658 228.378L114.021 212.553C111.171 212.128 108.242 212.947 106.016 214.859L116.441 226.996ZM60.9284 253.207C61.1778 261.613 71.0605 265.976 77.4398 260.496L67.0145 248.359C70.8421 245.071 76.7716 247.689 76.9213 252.732L60.9284 253.207ZM62.6168 211.952C60.8226 210.953 59.6182 209.062 59.5542 206.903L75.5471 206.428C75.4409 202.848 73.4368 199.664 70.4 197.973L62.6168 211.952Z" fill="url(#paint3_linear_321_7427)" mask="url(#path-4-inside-2_321_7427)"/>
<path fill-rule="evenodd" clip-rule="evenodd" d="M129.512 78.5043C118.913 81.0419 111.923 86.1872 107.431 94.7569C105.265 98.8885 104.393 102.043 104.124 106.718C103.917 110.328 103.989 111.019 104.719 112.448C107.334 117.561 113.626 118.76 117.814 114.945C119.329 113.566 120.191 111.438 120.49 108.343C120.665 106.531 121.191 104.576 121.92 103.023C126.115 94.087 137.683 92.0617 144.539 99.0633C151.56 106.233 149.406 117.535 140.171 121.975C131.59 126.101 126.45 133.911 126.45 142.821C126.45 148.413 129.6 151.926 134.615 151.926C138.968 151.926 142.75 148.387 142.797 144.269C142.819 142.381 143.668 139.881 144.662 138.78C145.066 138.332 146.797 137.236 148.507 136.344C154.396 133.273 158.771 128.932 161.799 123.157C164.144 118.684 164.86 115.917 165.105 110.389C165.288 106.278 165.183 104.888 164.458 101.851C161.949 91.3337 153.919 82.7611 143.426 79.3985C141.003 78.6222 131.555 78.0149 129.512 78.5043ZM130.736 162.428C124.479 165.735 124.412 174.148 130.618 177.338C133.587 178.865 137.937 178.073 140.18 175.599C143.947 171.444 142.788 165.093 137.795 162.526C135.935 161.57 132.451 161.521 130.736 162.428Z" fill="url(#paint4_linear_321_7427)"/>
<defs>
<linearGradient id="paint0_linear_321_7427" x1="201.127" y1="0" x2="201.127" y2="268.863" gradientUnits="userSpaceOnUse">
<stop stop-color="#EBEBEB"/>
<stop offset="1" stop-color="#717171"/>
</linearGradient>
<linearGradient id="paint1_linear_321_7427" x1="201.127" y1="0" x2="201.127" y2="268.863" gradientUnits="userSpaceOnUse">
<stop stop-color="#5A5A5A"/>
<stop offset="1" stop-color="#212121"/>
</linearGradient>
<linearGradient id="paint2_linear_321_7427" x1="135.141" y1="34.3357" x2="135.141" y2="254.914" gradientUnits="userSpaceOnUse">
<stop stop-color="#EBEBEB"/>
<stop offset="1" stop-color="#717171"/>
</linearGradient>
<linearGradient id="paint3_linear_321_7427" x1="135.141" y1="34.3357" x2="135.141" y2="254.914" gradientUnits="userSpaceOnUse">
<stop stop-color="#5A5A5A"/>
<stop offset="1" stop-color="#212121"/>
</linearGradient>
<linearGradient id="paint4_linear_321_7427" x1="134.604" y1="78.3284" x2="134.604" y2="178.116" gradientUnits="userSpaceOnUse">
<stop stop-color="#5A5A5A"/>
<stop offset="1" stop-color="#212121"/>
</linearGradient>
</defs>
</svg>
