<svg width="191" height="162" viewBox="0 0 191 162" fill="none" xmlns="http://www.w3.org/2000/svg">
<mask id="mask0_41_8075" style="mask-type:alpha" maskUnits="userSpaceOnUse" x="1" y="28" width="190" height="133">
<rect x="1" y="28.8489" width="190" height="131.493" rx="19" fill="white"/>
</mask>
<g mask="url(#mask0_41_8075)">
<g opacity="0.404319" filter="url(#filter0_f_41_8075)">
<rect x="-16.5391" y="12.8127" width="251.385" height="28.8644" rx="6" fill="white"/>
</g>
<g opacity="0.156151" filter="url(#filter1_f_41_8075)">
<path fill-rule="evenodd" clip-rule="evenodd" d="M-0.458834 22.4343C1.96272 22.4343 3.92578 24.3974 3.92578 26.8189L3.92578 165.579C3.92578 168 1.96272 169.964 -0.458834 169.964V169.964C-2.88039 169.964 -4.84345 168 -4.84345 165.579L-4.84345 26.8189C-4.84345 24.3974 -2.88039 22.4343 -0.458834 22.4343V22.4343Z" fill="white"/>
</g>
</g>
<mask id="path-4-outside-1_41_8075" maskUnits="userSpaceOnUse" x="58" y="0" width="76" height="29" fill="black">
<rect fill="white" x="58" width="76" height="29"/>
<path d="M133 28.9043V4.10048C133 3.27818 131.051 2.48956 127.581 1.90811C124.112 1.32666 119.407 1 114.5 1H77.5C72.5935 1 67.888 1.32666 64.4185 1.90811C60.9491 2.48956 59 3.27818 59 4.10048V28.9043"/>
</mask>
<path d="M133 28.9043V4.10048C133 3.27818 131.051 2.48956 127.581 1.90811C124.112 1.32666 119.407 1 114.5 1H77.5C72.5935 1 67.888 1.32666 64.4185 1.90811C60.9491 2.48956 59 3.27818 59 4.10048V28.9043" fill="white" fill-opacity="0.1"/>
<path d="M59 4.10048H58.25H59ZM133.75 28.9043V4.10048H132.25V28.9043H133.75ZM133.75 4.10048C133.75 3.57621 133.438 3.18228 133.123 2.91805C132.801 2.6476 132.367 2.41865 131.873 2.21873C130.878 1.8161 129.461 1.46272 127.705 1.16842L127.458 2.64779C129.171 2.93495 130.464 3.2666 131.31 3.60922C131.737 3.78192 132.008 3.94065 132.159 4.06751C132.318 4.20059 132.25 4.2136 132.25 4.10048H133.75ZM127.705 1.16842C124.183 0.578019 119.433 0.25 114.5 0.25V1.75C119.38 1.75 124.041 2.07529 127.458 2.64779L127.705 1.16842ZM114.5 0.25H77.5V1.75H114.5V0.25ZM77.5 0.25C72.5669 0.25 67.8174 0.578019 64.2946 1.16842L64.5425 2.64779C67.9585 2.07529 72.6201 1.75 77.5 1.75V0.25ZM64.2946 1.16842C62.5386 1.46272 61.122 1.8161 60.1269 2.21873C59.6328 2.41865 59.1995 2.6476 58.8769 2.91805C58.5617 3.18228 58.25 3.57621 58.25 4.10048H59.75C59.75 4.2136 59.6819 4.20059 59.8406 4.06751C59.9919 3.94065 60.2627 3.78192 60.6895 3.60922C61.5363 3.2666 62.8291 2.93495 64.5425 2.64779L64.2946 1.16842ZM58.25 4.10048V28.9043H59.75V4.10048H58.25Z" fill="url(#paint0_linear_41_8075)" mask="url(#path-4-outside-1_41_8075)"/>
<mask id="path-6-outside-2_41_8075" maskUnits="userSpaceOnUse" x="63" y="4.98291" width="66" height="24" fill="black">
<rect fill="white" x="63" y="4.98291" width="66" height="24"/>
<path d="M128 28.9043V8.52973C128 7.85427 126.314 7.20648 123.314 6.72886C120.313 6.25124 116.243 5.98291 112 5.98291H80C75.7565 5.98291 71.6869 6.25124 68.6863 6.72886C65.6857 7.20648 64 7.85427 64 8.52973V28.9043"/>
</mask>
<path d="M128 28.9043V8.52973C128 7.85427 126.314 7.20648 123.314 6.72886C120.313 6.25124 116.243 5.98291 112 5.98291H80C75.7565 5.98291 71.6869 6.25124 68.6863 6.72886C65.6857 7.20648 64 7.85427 64 8.52973V28.9043" fill="#1D1D1D"/>
<path d="M64 8.52973H63.25H64ZM128.75 28.9043V8.52973H127.25V28.9043H128.75ZM128.75 8.52973C128.75 8.02571 128.436 7.66595 128.157 7.44384C127.866 7.2123 127.481 7.02033 127.051 6.85502C126.183 6.52141 124.952 6.23019 123.432 5.98818L123.196 7.46953C124.676 7.70514 125.788 7.97663 126.513 8.25519C126.879 8.39597 127.103 8.52244 127.223 8.61726C127.353 8.72151 127.25 8.69602 127.25 8.52973H128.75ZM123.432 5.98818C120.38 5.50246 116.269 5.23291 112 5.23291V6.73291C116.218 6.73291 120.246 7.00001 123.196 7.46953L123.432 5.98818ZM112 5.23291H80V6.73291H112V5.23291ZM80 5.23291C75.7313 5.23291 71.6199 5.50246 68.5684 5.98818L68.8042 7.46953C71.7539 7.00001 75.7818 6.73291 80 6.73291V5.23291ZM68.5684 5.98818C67.048 6.23019 65.817 6.52141 64.9489 6.85502C64.5187 7.02033 64.1338 7.2123 63.8431 7.44384C63.5642 7.66595 63.25 8.02571 63.25 8.52973H64.75C64.75 8.69602 64.6466 8.72151 64.7775 8.61726C64.8965 8.52244 65.1206 8.39597 65.487 8.25519C66.2118 7.97663 67.324 7.70514 68.8042 7.46953L68.5684 5.98818ZM63.25 8.52973V28.9043H64.75V8.52973H63.25Z" fill="url(#paint1_linear_41_8075)" mask="url(#path-6-outside-2_41_8075)"/>
<path d="M171.208 28.6932H19.912C9.26131 28.6932 0.625 37.2982 0.625 47.9156V142.153C0.625 152.77 9.26131 161.375 19.912 161.375H171.208C181.859 161.375 190.495 152.77 190.495 142.153V47.9156C190.495 37.2982 181.859 28.6932 171.208 28.6932Z" fill="white" fill-opacity="0.1" stroke="url(#paint2_linear_41_8075)" stroke-width="0.75"/>
<defs>
<filter id="filter0_f_41_8075" x="-41.0036" y="-11.6518" width="300.314" height="77.7935" filterUnits="userSpaceOnUse" color-interpolation-filters="sRGB">
<feFlood flood-opacity="0" result="BackgroundImageFix"/>
<feBlend mode="normal" in="SourceGraphic" in2="BackgroundImageFix" result="shape"/>
<feGaussianBlur stdDeviation="12.2323" result="effect1_foregroundBlur_41_8075"/>
</filter>
<filter id="filter1_f_41_8075" x="-8.92117" y="18.3569" width="16.9244" height="155.684" filterUnits="userSpaceOnUse" color-interpolation-filters="sRGB">
<feFlood flood-opacity="0" result="BackgroundImageFix"/>
<feBlend mode="normal" in="SourceGraphic" in2="BackgroundImageFix" result="shape"/>
<feGaussianBlur stdDeviation="2.03871" result="effect1_foregroundBlur_41_8075"/>
</filter>
<linearGradient id="paint0_linear_41_8075" x1="59" y1="-2.63469" x2="56.1008" y2="26.8786" gradientUnits="userSpaceOnUse">
<stop stop-color="#8B8B8B" stop-opacity="0.516361"/>
<stop offset="0.224563" stop-color="#797979" stop-opacity="0.463172"/>
<stop offset="1" stop-color="#989898" stop-opacity="0"/>
</linearGradient>
<linearGradient id="paint1_linear_41_8075" x1="64" y1="2.99727" x2="61.736" y2="27.263" gradientUnits="userSpaceOnUse">
<stop stop-color="#8B8B8B" stop-opacity="0.516361"/>
<stop offset="0.224563" stop-color="#797979" stop-opacity="0.463172"/>
<stop offset="1" stop-color="#989898" stop-opacity="0"/>
</linearGradient>
<linearGradient id="paint2_linear_41_8075" x1="0.999998" y1="11.8834" x2="-23.7852" y2="148.265" gradientUnits="userSpaceOnUse">
<stop stop-color="#8B8B8B" stop-opacity="0.516361"/>
<stop offset="0.224563" stop-color="#797979" stop-opacity="0.463172"/>
<stop offset="1" stop-color="#989898" stop-opacity="0"/>
</linearGradient>
</defs>
</svg>
