<svg width="108" height="75" viewBox="0 0 108 75" fill="none" xmlns="http://www.w3.org/2000/svg">
<path d="M99.3492 49.7449C104.924 44.2388 108 36.9289 108 29.1444C108 21.3599 104.924 14.0501 99.3492 8.54396C93.7743 3.03785 86.3731 0 78.4913 0C70.6095 0 63.189 3.03785 57.6333 8.54396C56.2684 9.89201 55.0573 11.354 54 12.8919C52.9427 11.354 51.7316 9.89201 50.3667 8.54396C44.7917 3.03785 37.3905 0 29.5087 0C21.6269 0 14.2065 3.03785 8.65076 8.54396C3.07583 14.0501 0 21.3599 0 29.1444C0 36.9289 3.07583 44.2388 8.65076 49.7449C14.2257 55.251 21.6269 58.2888 29.5087 58.2888C37.3905 58.2888 44.811 55.251 50.3667 49.7449C51.7316 48.3968 52.9427 46.9348 54 45.3969C55.0573 46.9348 56.2684 48.3968 57.6333 49.7449C63.2083 55.251 70.6095 58.2888 78.4913 58.2888C86.3731 58.2888 93.7743 55.251 99.3492 49.7449ZM52.7504 43.4413C47.906 51.1119 39.3129 56.2003 29.4895 56.2003C14.3603 56.2003 2.09541 44.0869 2.09541 29.1444C2.09541 14.202 14.3603 2.08852 29.4895 2.08852C39.3129 2.08852 47.9252 7.19592 52.7504 14.8475C53.1926 15.55 53.5963 16.2715 53.9808 17.012C55.8263 20.6574 56.8836 24.7775 56.8836 29.1254C56.8836 33.4734 55.8455 37.5934 53.9808 41.2389C53.5963 42.0173 53.1926 42.7388 52.7504 43.4413ZM55.2111 43.4413C57.6718 39.1314 58.9982 34.2328 58.9982 29.1444C58.9982 24.056 57.691 19.1575 55.2111 14.8475C60.0555 7.17693 68.6486 2.08852 78.472 2.08852C93.6013 2.08852 105.866 14.202 105.866 29.1444C105.866 44.0869 93.6013 56.2003 78.472 56.2003C68.6678 56.2003 60.0555 51.0929 55.2111 43.4413Z" fill="#F2F2F2"/>
<path d="M11.7063 68.808C12.7444 68.5232 13.4172 67.6688 13.4172 66.4917C13.4172 65.7322 13.1481 65.1246 12.5329 64.612C11.8793 64.0424 11.2065 63.8525 9.89925 63.8525H6.28516V74.4281H9.64934C10.2261 74.4281 10.6874 74.4091 11.0142 74.3901C12.8982 74.2762 13.8209 72.9281 13.8209 71.4662C13.8402 70.0801 13.1481 69.2257 11.7063 68.808ZM8.41901 65.6373H9.66857C10.1492 65.6373 10.3798 65.6942 10.5529 65.7702C10.9181 65.9601 11.168 66.3967 11.168 66.8334C11.168 67.2511 10.8989 67.7828 10.6105 67.9347C10.4183 68.0486 10.1876 68.0676 9.68779 68.0676H8.41901V65.6373ZM10.8604 72.4345C10.6105 72.6054 10.303 72.6813 9.86081 72.6813H8.45746V69.8333H9.80313C10.303 69.8333 10.3799 69.8523 10.6298 69.9283C11.0911 70.0991 11.4179 70.6118 11.4179 71.2193C11.3987 71.694 11.168 72.1876 10.8604 72.4345Z" fill="#F2F2F2"/>
<path d="M19.1056 63.8525H16.9141V74.4091H22.5467L22.9312 72.6433H19.1056V63.8525Z" fill="#F2F2F2"/>
<path d="M27.9519 63.813L24.4531 74.4075H26.7023L27.4521 71.9013H30.5856L31.3353 74.4075H33.6422L30.278 63.813H27.9519ZM27.9711 70.1355C28.2018 69.433 28.3364 68.9394 28.5478 68.1799C28.7401 67.3825 29.0476 66.1483 29.0476 66.1483C29.0476 66.1483 29.3744 67.5344 29.4706 68.009C29.7013 69.0343 30.0473 70.1355 30.0473 70.1355H27.9711Z" fill="#F2F2F2"/>
<path d="M40.2918 72.9472C39.3691 72.9472 38.6578 72.5295 38.2348 71.77C37.908 71.2004 37.7927 70.384 37.7927 68.941C37.7927 67.7069 37.9849 66.8335 38.3886 66.2259C38.7731 65.6563 39.4844 65.3146 40.1957 65.3146C40.7916 65.3146 41.3683 65.5044 41.9066 65.9031L42.8678 64.4602C42.2911 63.9665 41.2145 63.6248 40.1572 63.6248C38.4271 63.6248 36.8892 64.5361 36.0625 66.074C35.5627 66.9854 35.332 68.0296 35.332 69.3587C35.332 70.9156 35.755 72.1877 36.62 73.137C37.5043 74.1243 38.6385 74.599 40.1188 74.599C41.3299 74.599 42.2334 74.2952 43.0793 73.6117L42.0989 72.2826C41.4837 72.7573 40.9454 72.9472 40.2918 72.9472Z" fill="#F2F2F2"/>
<path d="M53.5202 63.8525H50.8673L47.8299 68.6561V63.8525H45.6191V74.4091H47.8299V68.884L51.0595 74.4091H53.9046L50.0983 68.7321L53.5202 63.8525Z" fill="#F2F2F2"/>
<path d="M66.3782 68.808C67.4163 68.5232 68.0891 67.6688 68.0891 66.4917C68.0891 65.7322 67.82 65.1246 67.2048 64.612C66.5512 64.0424 65.8784 63.8525 64.5711 63.8525H60.957V74.4281H64.3212C64.8979 74.4281 65.3593 74.4091 65.6861 74.3901C67.5701 74.2762 68.4928 72.9281 68.4928 71.4662C68.4928 70.0801 67.8007 69.2257 66.3782 68.808ZM63.0717 65.6373H64.3212C64.8018 65.6373 65.0325 65.6942 65.2055 65.7702C65.5708 65.9601 65.8207 66.3967 65.8207 66.8334C65.8207 67.2511 65.5516 67.7828 65.2632 67.9347C65.071 68.0486 64.8403 68.0676 64.3404 68.0676H63.0717V65.6373V65.6373ZM65.5131 72.4345C65.2632 72.6054 64.9556 72.6813 64.5135 72.6813H63.1101V69.8333H64.4558C64.9556 69.8333 65.0325 69.8523 65.2824 69.9283C65.7438 70.0991 66.0706 70.6118 66.0706 71.2193C66.0706 71.694 65.8399 72.1876 65.5131 72.4345Z" fill="#F2F2F2"/>
<path d="M73.7409 63.813L70.2422 74.4075H72.4914L73.2411 71.9013H76.3746L77.1243 74.4075H79.4312L76.067 63.813H73.7409ZM73.7602 70.1355C73.9908 69.433 74.1254 68.9394 74.3369 68.1799C74.5291 67.3825 74.8367 66.1483 74.8367 66.1483C74.8367 66.1483 75.1635 67.5344 75.2596 68.009C75.4903 69.0343 75.8364 70.1355 75.8364 70.1355H73.7602Z" fill="#F2F2F2"/>
<path d="M87.1614 68.1617C87.1806 68.8832 87.2575 70.2502 87.3344 71.0667C87.1229 70.3072 86.7 69.206 86.1617 68.0668L84.124 63.8518H81.7402V74.4083H83.8164L83.7587 69.8895C83.7395 69.0161 83.7203 67.763 83.6434 66.8896C83.8356 67.5352 84.5085 69.0351 85.0852 70.3452L86.9115 74.3893H89.1607V63.8328H87.1229L87.1614 68.1617Z" fill="#F2F2F2"/>
<path d="M100.062 63.813H97.5057L96.0447 66.661L94.6029 63.813H91.9692L94.8528 68.7305L91.5078 74.4075H94.1799L96.0831 70.6861L98.0055 74.4075H100.601L97.2942 68.5976L100.062 63.813Z" fill="#F2F2F2"/>
<path d="M40.5432 29.9986C39.582 29.2391 38.0056 28.5936 35.8141 28.043C40.0626 26.7139 42.1964 24.1507 42.1964 20.3534C42.1964 18.5117 41.6389 16.8599 40.5047 15.3979C39.3705 13.9549 37.9095 12.9107 36.1216 12.3031C34.603 11.7905 31.0658 11.5247 25.5293 11.5247H20.3965V46.6878H29.5855C33.4303 46.6878 36.1217 46.422 37.6788 45.8714C39.4858 45.2259 40.9276 44.0677 42.0426 42.4158C43.1576 40.764 43.6959 38.9793 43.6959 37.0616C43.6959 33.9858 42.6386 31.6315 40.5432 29.9986ZM24.4912 15.0751H29.5278C30.9504 15.0751 32.0462 15.1511 32.8536 15.284C35.6795 15.7397 37.4673 17.6763 37.4673 20.923C37.4673 21.8723 37.2751 22.7837 36.8906 23.6381C36.3331 24.9292 35.5065 25.7836 34.3915 26.2013C33.6225 26.5051 32.3922 26.657 30.6621 26.657H24.4912V15.0751ZM38.7169 39.6248C38.0825 41.1627 37.179 42.207 35.9486 42.7196C35.0067 43.0994 33.5649 43.2892 31.6233 43.2892H24.4912V30.1125H30.7966C32.4691 30.1125 33.8532 30.2644 34.9682 30.4733C36.1985 30.7201 37.3904 31.5365 38.1402 32.7137C38.9091 33.8909 39.2936 35.2199 39.2936 36.7009C39.2936 37.6882 39.1014 38.6565 38.7169 39.6248Z" fill="#F2F2F2"/>
<path d="M86.6804 45.8904C88.4875 45.2448 89.9293 44.0867 91.0443 42.4348C92.1593 40.783 92.6975 38.9983 92.6975 37.0806C92.6975 34.0048 91.6402 31.6504 89.5256 29.9986C88.5644 29.2391 86.988 28.5936 84.7965 28.043C89.045 26.7139 91.1788 24.1507 91.1788 20.3534C91.1788 18.5117 90.6213 16.8599 89.4871 15.3979C88.3529 13.9549 86.8919 12.9107 85.1041 12.3031C83.5854 11.7905 80.0482 11.5247 74.5117 11.5247H69.3789V46.6878H78.5679C82.4127 46.7068 85.1233 46.441 86.6804 45.8904ZM73.4928 15.0751H78.5295C79.9521 15.0751 81.0478 15.1511 81.8552 15.284C84.6812 15.7397 86.469 17.6763 86.469 20.923C86.469 21.8723 86.2767 22.7837 85.8923 23.6381C85.3348 24.9292 84.5081 25.7836 83.3932 26.2013C82.6242 26.5051 81.3939 26.657 79.6637 26.657H73.4928V15.0751ZM73.4928 30.0935H79.7983C81.4708 30.0935 82.8549 30.2454 83.9699 30.4543C85.2002 30.7011 86.3921 31.5175 87.1418 32.6947C87.9108 33.8719 88.2952 35.2009 88.2952 36.6819C88.2952 37.6692 88.103 38.6565 87.7185 39.6058C87.0841 41.1437 86.1806 42.188 84.9503 42.7006C84.0083 43.0804 82.5665 43.2702 80.6249 43.2702H73.4928V30.0935Z" fill="#F2F2F2"/>
</svg>
