<svg width="40" height="39" viewBox="0 0 40 39" fill="none" xmlns="http://www.w3.org/2000/svg">
<ellipse opacity="0.3" cx="20" cy="19.5" rx="20" ry="19.5" fill="#F2F2F2"/>
<path d="M12.666 16.9443H15.7216V27.3332H12.666V16.9443ZM14.1846 15.7221H14.1675C13.2557 15.7221 12.666 15.0425 12.666 14.1937C12.666 13.3265 13.2741 12.6665 14.2023 12.6665C15.1318 12.6665 15.7045 13.3265 15.7216 14.1937C15.7216 15.0419 15.1318 15.7221 14.1846 15.7221ZM27.3327 27.3332H24.2771V21.7727C24.2771 20.4294 23.5285 19.5128 22.3265 19.5128C21.4092 19.5128 20.913 20.1312 20.6722 20.7289C20.5842 20.9428 20.6105 21.5343 20.6105 21.8332V27.3332H17.5549V16.9443H20.6105V18.5429C21.0511 17.8609 21.741 16.9443 23.5059 16.9443C25.6925 16.9443 27.3321 18.3193 27.3321 21.3895L27.3327 27.3332Z" fill="white"/>
</svg>
