<svg width="40" height="39" viewBox="0 0 40 39" fill="none" xmlns="http://www.w3.org/2000/svg">
<ellipse opacity="0.3" cx="20" cy="19.5" rx="20" ry="19.5" fill="#F2F2F2"/>
<path d="M28.8302 12.6952C28.0831 13.0481 26.8117 13.7099 26.1727 13.8364C26.148 13.8428 26.1278 13.8511 26.104 13.8575C25.3587 13.1223 24.3376 12.6668 23.2073 12.6668C20.9294 12.6668 19.0823 14.5138 19.0823 16.7918C19.0823 16.9118 19.0722 17.1328 19.0823 17.2501C16.1325 17.2501 13.9783 15.711 12.3659 13.7328C12.1505 13.467 11.9213 13.6054 11.8737 13.7943C11.7664 14.2214 11.7297 14.9355 11.7297 15.4452C11.7297 16.7294 12.7335 17.9908 14.2964 18.7727C14.0086 18.8469 13.6914 18.9001 13.3614 18.9001C12.9727 18.9001 12.5254 18.7983 12.134 18.593C11.9892 18.5169 11.6766 18.538 11.7692 18.9083C12.1404 20.3924 13.8344 21.4347 15.3478 21.7381C15.0041 21.9407 14.2707 21.8994 13.9334 21.8994C13.8087 21.8994 13.3752 21.8701 13.0947 21.8353C12.8389 21.8041 12.4457 21.8701 12.7747 22.3688C13.4815 23.4385 15.0802 24.1104 16.4561 24.1361C15.1892 25.1298 13.1176 25.4928 11.133 25.4928C10.7315 25.4836 10.7517 25.941 11.0752 26.1106C12.5392 26.8788 14.9372 27.3334 16.6504 27.3334C23.4612 27.3334 27.3323 22.1423 27.3323 17.2492C27.3323 17.1703 27.3305 17.0053 27.3277 16.8394C27.3277 16.8229 27.3323 16.8073 27.3323 16.7908C27.3323 16.7661 27.325 16.7423 27.325 16.7175C27.3222 16.5928 27.3195 16.4764 27.3167 16.4159C27.8567 16.0263 28.6835 15.3498 29.1015 14.8319C29.2436 14.6559 29.129 14.4423 28.9356 14.5093C28.4378 14.6825 27.5771 15.018 27.0381 15.0822C28.117 14.3681 28.6505 13.7466 29.1088 13.0563C29.2656 12.8208 29.0694 12.5815 28.8302 12.6952Z" fill="white"/>
</svg>
